<mxfile host="app.diagrams.net" modified="2023-03-26T21:55:17.616Z" agent="Mozilla/5.0 (Windows NT 10.0; Win64; x64) AppleWebKit/537.36 (KHTML, like Gecko) Chrome/111.0.0.0 Safari/537.36" etag="1RfdmBZh5BEbDIroA-SN" version="21.1.1" type="device" pages="3">
  <diagram id="-d8KJ4QEuPxyiDQyjDw2" name="модуль сцены">
    <mxGraphModel dx="1976" dy="2832" grid="1" gridSize="10" guides="1" tooltips="1" connect="1" arrows="1" fold="1" page="1" pageScale="1" pageWidth="1169" pageHeight="1654" math="0" shadow="0">
      <root>
        <mxCell id="0" />
        <mxCell id="1" parent="0" />
        <mxCell id="HzqRPyfF4sRls6DlDqLv-10" value="Модель" style="swimlane;fontStyle=1;align=center;verticalAlign=top;childLayout=stackLayout;horizontal=1;startSize=26;horizontalStack=0;resizeParent=1;resizeParentMax=0;resizeLast=0;collapsible=1;marginBottom=0;whiteSpace=wrap;html=1;fontFamily=Courier New;" parent="1" vertex="1">
          <mxGeometry x="530" y="910" width="220" height="74" as="geometry" />
        </mxCell>
        <mxCell id="HzqRPyfF4sRls6DlDqLv-12" value="" style="line;strokeWidth=1;fillColor=none;align=left;verticalAlign=middle;spacingTop=-1;spacingLeft=3;spacingRight=3;rotatable=0;labelPosition=right;points=[];portConstraint=eastwest;strokeColor=inherit;fontFamily=Courier New;" parent="HzqRPyfF4sRls6DlDqLv-10" vertex="1">
          <mxGeometry y="26" width="220" height="8" as="geometry" />
        </mxCell>
        <mxCell id="HzqRPyfF4sRls6DlDqLv-13" value="&lt;font&gt;+ doStep( previous_t : Real&lt;br style=&quot;border-color: var(--border-color);&quot;&gt;&amp;nbsp; &amp;nbsp; &amp;nbsp; &amp;nbsp; , next_t&amp;nbsp; &amp;nbsp; &amp;nbsp;: Real )&lt;/font&gt;" style="text;strokeColor=none;fillColor=none;align=left;verticalAlign=top;spacingLeft=4;spacingRight=4;overflow=hidden;rotatable=0;points=[[0,0.5],[1,0.5]];portConstraint=eastwest;whiteSpace=wrap;html=1;fontFamily=Courier New;" parent="HzqRPyfF4sRls6DlDqLv-10" vertex="1">
          <mxGeometry y="34" width="220" height="40" as="geometry" />
        </mxCell>
        <mxCell id="HzqRPyfF4sRls6DlDqLv-21" value="Композиция" style="swimlane;fontStyle=1;align=center;verticalAlign=top;childLayout=stackLayout;horizontal=1;startSize=26;horizontalStack=0;resizeParent=1;resizeParentMax=0;resizeLast=0;collapsible=1;marginBottom=0;whiteSpace=wrap;html=1;fontFamily=Courier New;" parent="1" vertex="1">
          <mxGeometry x="910" y="910" width="220" height="74" as="geometry" />
        </mxCell>
        <mxCell id="HzqRPyfF4sRls6DlDqLv-23" value="" style="line;strokeWidth=1;fillColor=none;align=left;verticalAlign=middle;spacingTop=-1;spacingLeft=3;spacingRight=3;rotatable=0;labelPosition=right;points=[];portConstraint=eastwest;strokeColor=inherit;fontFamily=Courier New;" parent="HzqRPyfF4sRls6DlDqLv-21" vertex="1">
          <mxGeometry y="26" width="220" height="8" as="geometry" />
        </mxCell>
        <mxCell id="HzqRPyfF4sRls6DlDqLv-24" value="&lt;font&gt;+ doStep( previous_t : Real&lt;br style=&quot;border-color: var(--border-color);&quot;&gt;&amp;nbsp; &amp;nbsp; &amp;nbsp; &amp;nbsp; , next_t&amp;nbsp; &amp;nbsp; &amp;nbsp;: Real )&lt;/font&gt;" style="text;strokeColor=none;fillColor=none;align=left;verticalAlign=top;spacingLeft=4;spacingRight=4;overflow=hidden;rotatable=0;points=[[0,0.5],[1,0.5]];portConstraint=eastwest;whiteSpace=wrap;html=1;fontFamily=Courier New;" parent="HzqRPyfF4sRls6DlDqLv-21" vertex="1">
          <mxGeometry y="34" width="220" height="40" as="geometry" />
        </mxCell>
        <mxCell id="HzqRPyfF4sRls6DlDqLv-26" value="" style="endArrow=block;html=1;rounded=0;endFill=0;exitX=0.5;exitY=0;exitDx=0;exitDy=0;endSize=10;fontFamily=Courier New;dashed=1;" parent="1" source="HzqRPyfF4sRls6DlDqLv-10" target="HzqRPyfF4sRls6DlDqLv-96" edge="1">
          <mxGeometry width="50" height="50" relative="1" as="geometry">
            <mxPoint x="624" y="820" as="sourcePoint" />
            <mxPoint x="780.7407407407409" y="815" as="targetPoint" />
          </mxGeometry>
        </mxCell>
        <mxCell id="HzqRPyfF4sRls6DlDqLv-28" value="" style="endArrow=block;html=1;rounded=0;endFill=0;exitX=0.5;exitY=0;exitDx=0;exitDy=0;strokeWidth=1;endSize=10;fontFamily=Courier New;dashed=1;" parent="1" source="HzqRPyfF4sRls6DlDqLv-21" target="HzqRPyfF4sRls6DlDqLv-96" edge="1">
          <mxGeometry width="50" height="50" relative="1" as="geometry">
            <mxPoint x="800" y="880" as="sourcePoint" />
            <mxPoint x="893.3333333333335" y="815" as="targetPoint" />
          </mxGeometry>
        </mxCell>
        <mxCell id="HzqRPyfF4sRls6DlDqLv-30" style="edgeStyle=orthogonalEdgeStyle;rounded=0;orthogonalLoop=1;jettySize=auto;html=1;endArrow=diamondThin;endFill=1;endSize=15;startArrow=openThin;startFill=0;startSize=12;fontFamily=Courier New;" parent="1" source="HzqRPyfF4sRls6DlDqLv-96" target="HzqRPyfF4sRls6DlDqLv-21" edge="1">
          <mxGeometry relative="1" as="geometry">
            <mxPoint x="950" y="760" as="sourcePoint" />
            <mxPoint x="1190" y="930" as="targetPoint" />
            <Array as="points">
              <mxPoint x="1240" y="774" />
              <mxPoint x="1240" y="949" />
            </Array>
          </mxGeometry>
        </mxCell>
        <mxCell id="HzqRPyfF4sRls6DlDqLv-31" value="1..*" style="edgeLabel;html=1;align=center;verticalAlign=middle;resizable=0;points=[];fontSize=15;fontFamily=Courier New;labelBackgroundColor=none;" parent="HzqRPyfF4sRls6DlDqLv-30" vertex="1" connectable="0">
          <mxGeometry x="-0.9068" y="2" relative="1" as="geometry">
            <mxPoint x="12" y="-8" as="offset" />
          </mxGeometry>
        </mxCell>
        <mxCell id="HzqRPyfF4sRls6DlDqLv-33" value="&lt;font&gt;&lt;span style=&quot;font-size: 15px;&quot;&gt;- actors&lt;/span&gt;&lt;/font&gt;" style="edgeLabel;html=1;align=center;verticalAlign=middle;resizable=0;points=[];fontFamily=Courier New;" parent="HzqRPyfF4sRls6DlDqLv-30" vertex="1" connectable="0">
          <mxGeometry x="0.87" relative="1" as="geometry">
            <mxPoint x="21" y="-19" as="offset" />
          </mxGeometry>
        </mxCell>
        <mxCell id="HzqRPyfF4sRls6DlDqLv-35" style="edgeStyle=orthogonalEdgeStyle;rounded=0;orthogonalLoop=1;jettySize=auto;html=1;endArrow=diamondThin;endFill=1;endSize=15;startArrow=openThin;startFill=0;startSize=12;fontFamily=Courier New;" parent="1" source="HzqRPyfF4sRls6DlDqLv-93" target="HzqRPyfF4sRls6DlDqLv-21" edge="1">
          <mxGeometry relative="1" as="geometry">
            <mxPoint x="960" y="765" as="sourcePoint" />
            <mxPoint x="1140" y="959" as="targetPoint" />
            <Array as="points">
              <mxPoint x="1020" y="1170" />
              <mxPoint x="1020" y="1170" />
            </Array>
          </mxGeometry>
        </mxCell>
        <mxCell id="HzqRPyfF4sRls6DlDqLv-36" value="1" style="edgeLabel;html=1;align=center;verticalAlign=middle;resizable=0;points=[];fontSize=15;fontFamily=Courier New;" parent="HzqRPyfF4sRls6DlDqLv-35" vertex="1" connectable="0">
          <mxGeometry x="-0.9068" y="2" relative="1" as="geometry">
            <mxPoint x="12" y="-18" as="offset" />
          </mxGeometry>
        </mxCell>
        <mxCell id="HzqRPyfF4sRls6DlDqLv-38" value="&lt;font&gt;&lt;span style=&quot;font-size: 15px;&quot;&gt;- equ&lt;/span&gt;&lt;/font&gt;" style="edgeLabel;html=1;align=center;verticalAlign=middle;resizable=0;points=[];fontFamily=Courier New;" parent="HzqRPyfF4sRls6DlDqLv-35" vertex="1" connectable="0">
          <mxGeometry x="0.87" relative="1" as="geometry">
            <mxPoint x="30" y="11" as="offset" />
          </mxGeometry>
        </mxCell>
        <mxCell id="HzqRPyfF4sRls6DlDqLv-44" value="&lt;span style=&quot;font-weight: normal;&quot;&gt;«интерфейс»&lt;/span&gt;&lt;br style=&quot;border-color: var(--border-color);&quot;&gt;МетодПолученияСостоянияМодели" style="swimlane;fontStyle=1;align=center;verticalAlign=top;childLayout=stackLayout;horizontal=1;startSize=40;horizontalStack=0;resizeParent=1;resizeParentMax=0;resizeLast=0;collapsible=1;marginBottom=0;whiteSpace=wrap;html=1;fontFamily=Courier New;" parent="1" vertex="1">
          <mxGeometry x="60" y="830" width="230" height="74" as="geometry" />
        </mxCell>
        <mxCell id="HzqRPyfF4sRls6DlDqLv-46" value="" style="line;strokeWidth=1;fillColor=none;align=left;verticalAlign=middle;spacingTop=-1;spacingLeft=3;spacingRight=3;rotatable=0;labelPosition=right;points=[];portConstraint=eastwest;strokeColor=inherit;fontFamily=Courier New;" parent="HzqRPyfF4sRls6DlDqLv-44" vertex="1">
          <mxGeometry y="40" width="230" height="8" as="geometry" />
        </mxCell>
        <mxCell id="HzqRPyfF4sRls6DlDqLv-47" value="+ getState(): array of Real" style="text;strokeColor=none;fillColor=none;align=left;verticalAlign=top;spacingLeft=4;spacingRight=4;overflow=hidden;rotatable=0;points=[[0,0.5],[1,0.5]];portConstraint=eastwest;whiteSpace=wrap;html=1;fontFamily=Courier New;" parent="HzqRPyfF4sRls6DlDqLv-44" vertex="1">
          <mxGeometry y="48" width="230" height="26" as="geometry" />
        </mxCell>
        <mxCell id="HzqRPyfF4sRls6DlDqLv-48" value="&lt;span style=&quot;font-weight: normal;&quot;&gt;«интерфейс»&lt;br style=&quot;border-color: var(--border-color);&quot;&gt;&lt;/span&gt;МетодУстановкиСостоянияМодели" style="swimlane;fontStyle=1;align=center;verticalAlign=top;childLayout=stackLayout;horizontal=1;startSize=40;horizontalStack=0;resizeParent=1;resizeParentMax=0;resizeLast=0;collapsible=1;marginBottom=0;whiteSpace=wrap;html=1;fontFamily=Courier New;" parent="1" vertex="1">
          <mxGeometry x="40" y="990" width="250" height="74" as="geometry" />
        </mxCell>
        <mxCell id="HzqRPyfF4sRls6DlDqLv-49" value="" style="line;strokeWidth=1;fillColor=none;align=left;verticalAlign=middle;spacingTop=-1;spacingLeft=3;spacingRight=3;rotatable=0;labelPosition=right;points=[];portConstraint=eastwest;strokeColor=inherit;fontFamily=Courier New;" parent="HzqRPyfF4sRls6DlDqLv-48" vertex="1">
          <mxGeometry y="40" width="250" height="8" as="geometry" />
        </mxCell>
        <mxCell id="HzqRPyfF4sRls6DlDqLv-50" value="+ setState(state : array of Real)" style="text;strokeColor=none;fillColor=none;align=left;verticalAlign=top;spacingLeft=4;spacingRight=4;overflow=hidden;rotatable=0;points=[[0,0.5],[1,0.5]];portConstraint=eastwest;whiteSpace=wrap;html=1;fontFamily=Courier New;" parent="HzqRPyfF4sRls6DlDqLv-48" vertex="1">
          <mxGeometry y="48" width="250" height="26" as="geometry" />
        </mxCell>
        <mxCell id="HzqRPyfF4sRls6DlDqLv-52" style="edgeStyle=orthogonalEdgeStyle;rounded=0;orthogonalLoop=1;jettySize=auto;html=1;endArrow=diamondThin;endFill=1;endSize=15;startArrow=openThin;startFill=0;startSize=12;fontFamily=Courier New;" parent="1" source="HzqRPyfF4sRls6DlDqLv-44" target="HzqRPyfF4sRls6DlDqLv-10" edge="1">
          <mxGeometry relative="1" as="geometry">
            <mxPoint x="430" y="882" as="sourcePoint" />
            <mxPoint x="360" y="720" as="targetPoint" />
            <Array as="points">
              <mxPoint x="360" y="870" />
              <mxPoint x="360" y="930" />
            </Array>
          </mxGeometry>
        </mxCell>
        <mxCell id="HzqRPyfF4sRls6DlDqLv-53" value="1" style="edgeLabel;html=1;align=center;verticalAlign=middle;resizable=0;points=[];fontSize=15;fontFamily=Courier New;" parent="HzqRPyfF4sRls6DlDqLv-52" vertex="1" connectable="0">
          <mxGeometry x="-0.9068" y="2" relative="1" as="geometry">
            <mxPoint x="12" y="-18" as="offset" />
          </mxGeometry>
        </mxCell>
        <mxCell id="HzqRPyfF4sRls6DlDqLv-54" value="&lt;font&gt;&lt;span style=&quot;font-size: 15px;&quot;&gt;- get_state&lt;/span&gt;&lt;/font&gt;" style="edgeLabel;html=1;align=center;verticalAlign=middle;resizable=0;points=[];fontFamily=Courier New;" parent="HzqRPyfF4sRls6DlDqLv-52" vertex="1" connectable="0">
          <mxGeometry x="0.87" relative="1" as="geometry">
            <mxPoint x="-58" y="-20" as="offset" />
          </mxGeometry>
        </mxCell>
        <mxCell id="HzqRPyfF4sRls6DlDqLv-55" style="edgeStyle=orthogonalEdgeStyle;rounded=0;orthogonalLoop=1;jettySize=auto;html=1;endArrow=diamondThin;endFill=1;endSize=15;startArrow=openThin;startFill=0;startSize=12;fontFamily=Courier New;" parent="1" source="HzqRPyfF4sRls6DlDqLv-48" target="HzqRPyfF4sRls6DlDqLv-10" edge="1">
          <mxGeometry relative="1" as="geometry">
            <mxPoint x="300" y="917" as="sourcePoint" />
            <mxPoint x="510" y="970" as="targetPoint" />
            <Array as="points">
              <mxPoint x="360" y="1030" />
              <mxPoint x="360" y="970" />
            </Array>
          </mxGeometry>
        </mxCell>
        <mxCell id="HzqRPyfF4sRls6DlDqLv-56" value="1" style="edgeLabel;html=1;align=center;verticalAlign=middle;resizable=0;points=[];fontSize=15;fontFamily=Courier New;" parent="HzqRPyfF4sRls6DlDqLv-55" vertex="1" connectable="0">
          <mxGeometry x="-0.9068" y="2" relative="1" as="geometry">
            <mxPoint x="12" y="-18" as="offset" />
          </mxGeometry>
        </mxCell>
        <mxCell id="HzqRPyfF4sRls6DlDqLv-57" value="&lt;font&gt;&lt;span style=&quot;font-size: 15px;&quot;&gt;- set_state&lt;/span&gt;&lt;/font&gt;" style="edgeLabel;html=1;align=center;verticalAlign=middle;resizable=0;points=[];fontFamily=Courier New;" parent="HzqRPyfF4sRls6DlDqLv-55" vertex="1" connectable="0">
          <mxGeometry x="0.87" relative="1" as="geometry">
            <mxPoint x="-58" y="-20" as="offset" />
          </mxGeometry>
        </mxCell>
        <mxCell id="HzqRPyfF4sRls6DlDqLv-58" style="edgeStyle=orthogonalEdgeStyle;rounded=0;orthogonalLoop=1;jettySize=auto;html=1;endArrow=diamondThin;endFill=1;endSize=15;startArrow=openThin;startFill=0;startSize=12;fontFamily=Courier New;" parent="1" source="HzqRPyfF4sRls6DlDqLv-93" target="HzqRPyfF4sRls6DlDqLv-10" edge="1">
          <mxGeometry relative="1" as="geometry">
            <mxPoint x="1100" y="1160" as="sourcePoint" />
            <mxPoint x="1030" y="998" as="targetPoint" />
            <Array as="points">
              <mxPoint x="730" y="1190" />
            </Array>
          </mxGeometry>
        </mxCell>
        <mxCell id="HzqRPyfF4sRls6DlDqLv-59" value="1" style="edgeLabel;html=1;align=center;verticalAlign=middle;resizable=0;points=[];fontSize=15;fontFamily=Courier New;labelBackgroundColor=none;" parent="HzqRPyfF4sRls6DlDqLv-58" vertex="1" connectable="0">
          <mxGeometry x="-0.9068" y="2" relative="1" as="geometry">
            <mxPoint x="-3" y="-12" as="offset" />
          </mxGeometry>
        </mxCell>
        <mxCell id="HzqRPyfF4sRls6DlDqLv-60" value="&lt;font&gt;&lt;span style=&quot;font-size: 15px;&quot;&gt;- equ&lt;/span&gt;&lt;/font&gt;" style="edgeLabel;html=1;align=center;verticalAlign=middle;resizable=0;points=[];fontFamily=Courier New;" parent="HzqRPyfF4sRls6DlDqLv-58" vertex="1" connectable="0">
          <mxGeometry x="0.87" relative="1" as="geometry">
            <mxPoint x="32" y="-1" as="offset" />
          </mxGeometry>
        </mxCell>
        <mxCell id="HzqRPyfF4sRls6DlDqLv-61" value="&lt;span style=&quot;font-weight: normal;&quot;&gt;«интерфейс»&lt;br style=&quot;border-color: var(--border-color);&quot;&gt;&lt;/span&gt;СистемаОду" style="swimlane;fontStyle=1;align=center;verticalAlign=top;childLayout=stackLayout;horizontal=1;startSize=40;horizontalStack=0;resizeParent=1;resizeParentMax=0;resizeLast=0;collapsible=1;marginBottom=0;whiteSpace=wrap;html=1;fontFamily=Courier New;" parent="1" vertex="1">
          <mxGeometry x="190" y="1150" width="270" height="100" as="geometry" />
        </mxCell>
        <mxCell id="HzqRPyfF4sRls6DlDqLv-62" value="" style="line;strokeWidth=1;fillColor=none;align=left;verticalAlign=middle;spacingTop=-1;spacingLeft=3;spacingRight=3;rotatable=0;labelPosition=right;points=[];portConstraint=eastwest;strokeColor=inherit;fontFamily=Courier New;" parent="HzqRPyfF4sRls6DlDqLv-61" vertex="1">
          <mxGeometry y="40" width="270" height="8" as="geometry" />
        </mxCell>
        <mxCell id="HzqRPyfF4sRls6DlDqLv-63" value="+ derivatives( time&amp;nbsp; : Real&lt;br style=&quot;border-color: var(--border-color);&quot;&gt;&amp;nbsp; &amp;nbsp; &amp;nbsp; &amp;nbsp; &amp;nbsp; &amp;nbsp; &amp;nbsp;, state : array of Real&lt;br style=&quot;border-color: var(--border-color);&quot;&gt;&amp;nbsp; &amp;nbsp; &amp;nbsp; &amp;nbsp; &amp;nbsp; &amp;nbsp; &amp;nbsp;): array of Real" style="text;strokeColor=none;fillColor=none;align=left;verticalAlign=top;spacingLeft=4;spacingRight=4;overflow=hidden;rotatable=0;points=[[0,0.5],[1,0.5]];portConstraint=eastwest;whiteSpace=wrap;html=1;fontFamily=Courier New;" parent="HzqRPyfF4sRls6DlDqLv-61" vertex="1">
          <mxGeometry y="48" width="270" height="52" as="geometry" />
        </mxCell>
        <mxCell id="HzqRPyfF4sRls6DlDqLv-64" value="&lt;span style=&quot;font-weight: normal;&quot;&gt;«интерфейс»&lt;br style=&quot;border-color: var(--border-color);&quot;&gt;&lt;/span&gt;РешательСистемОду" style="swimlane;fontStyle=1;align=center;verticalAlign=top;childLayout=stackLayout;horizontal=1;startSize=40;horizontalStack=0;resizeParent=1;resizeParentMax=0;resizeLast=0;collapsible=1;marginBottom=0;whiteSpace=wrap;html=1;fontFamily=Courier New;" parent="1" vertex="1">
          <mxGeometry x="550" y="1270" width="270" height="130" as="geometry" />
        </mxCell>
        <mxCell id="HzqRPyfF4sRls6DlDqLv-65" value="" style="line;strokeWidth=1;fillColor=none;align=left;verticalAlign=middle;spacingTop=-1;spacingLeft=3;spacingRight=3;rotatable=0;labelPosition=right;points=[];portConstraint=eastwest;strokeColor=inherit;fontFamily=Courier New;" parent="HzqRPyfF4sRls6DlDqLv-64" vertex="1">
          <mxGeometry y="40" width="270" height="8" as="geometry" />
        </mxCell>
        <mxCell id="HzqRPyfF4sRls6DlDqLv-66" value="+ solve( previous_t : Real&lt;br style=&quot;border-color: var(--border-color);&quot;&gt;&amp;nbsp; &amp;nbsp; &amp;nbsp; &amp;nbsp;, next_t&amp;nbsp; &amp;nbsp; &amp;nbsp;: Real&lt;br style=&quot;border-color: var(--border-color);&quot;&gt;&amp;nbsp; &amp;nbsp; &amp;nbsp; &amp;nbsp;, previous_y : array of Real&lt;br style=&quot;border-color: var(--border-color);&quot;&gt;&amp;nbsp; &amp;nbsp; &amp;nbsp; &amp;nbsp;, ode : СистемаОду&lt;br style=&quot;border-color: var(--border-color);&quot;&gt;&amp;nbsp; &amp;nbsp; &amp;nbsp; &amp;nbsp;): array of Real" style="text;strokeColor=none;fillColor=none;align=left;verticalAlign=top;spacingLeft=4;spacingRight=4;overflow=hidden;rotatable=0;points=[[0,0.5],[1,0.5]];portConstraint=eastwest;whiteSpace=wrap;html=1;fontFamily=Courier New;" parent="HzqRPyfF4sRls6DlDqLv-64" vertex="1">
          <mxGeometry y="48" width="270" height="82" as="geometry" />
        </mxCell>
        <mxCell id="HzqRPyfF4sRls6DlDqLv-67" style="edgeStyle=orthogonalEdgeStyle;rounded=0;orthogonalLoop=1;jettySize=auto;html=1;endArrow=diamondThin;endFill=1;endSize=15;startArrow=openThin;startFill=0;startSize=12;fontFamily=Courier New;" parent="1" source="HzqRPyfF4sRls6DlDqLv-61" target="HzqRPyfF4sRls6DlDqLv-10" edge="1">
          <mxGeometry relative="1" as="geometry">
            <mxPoint x="430" y="1180" as="sourcePoint" />
            <mxPoint x="620" y="1150" as="targetPoint" />
            <Array as="points">
              <mxPoint x="550" y="1200" />
            </Array>
          </mxGeometry>
        </mxCell>
        <mxCell id="HzqRPyfF4sRls6DlDqLv-68" value="1" style="edgeLabel;html=1;align=center;verticalAlign=middle;resizable=0;points=[];fontSize=15;fontFamily=Courier New;" parent="HzqRPyfF4sRls6DlDqLv-67" vertex="1" connectable="0">
          <mxGeometry x="-0.9068" y="2" relative="1" as="geometry">
            <mxPoint x="12" y="-18" as="offset" />
          </mxGeometry>
        </mxCell>
        <mxCell id="HzqRPyfF4sRls6DlDqLv-69" value="&lt;font&gt;&lt;span style=&quot;font-size: 15px;&quot;&gt;- ode&lt;/span&gt;&lt;/font&gt;" style="edgeLabel;html=1;align=center;verticalAlign=middle;resizable=0;points=[];fontFamily=Courier New;" parent="HzqRPyfF4sRls6DlDqLv-67" vertex="1" connectable="0">
          <mxGeometry x="0.87" relative="1" as="geometry">
            <mxPoint x="30" y="7" as="offset" />
          </mxGeometry>
        </mxCell>
        <mxCell id="HzqRPyfF4sRls6DlDqLv-70" style="edgeStyle=orthogonalEdgeStyle;rounded=0;orthogonalLoop=1;jettySize=auto;html=1;endArrow=diamondThin;endFill=1;endSize=15;startArrow=openThin;startFill=0;startSize=12;fontFamily=Courier New;" parent="1" source="HzqRPyfF4sRls6DlDqLv-64" target="HzqRPyfF4sRls6DlDqLv-10" edge="1">
          <mxGeometry relative="1" as="geometry">
            <mxPoint x="470" y="1200" as="sourcePoint" />
            <mxPoint x="590" y="1078" as="targetPoint" />
            <Array as="points">
              <mxPoint x="630" y="1140" />
              <mxPoint x="630" y="1140" />
            </Array>
          </mxGeometry>
        </mxCell>
        <mxCell id="HzqRPyfF4sRls6DlDqLv-71" value="1" style="edgeLabel;html=1;align=center;verticalAlign=middle;resizable=0;points=[];fontSize=15;fontFamily=Courier New;" parent="HzqRPyfF4sRls6DlDqLv-70" vertex="1" connectable="0">
          <mxGeometry x="-0.9068" y="2" relative="1" as="geometry">
            <mxPoint x="12" y="-18" as="offset" />
          </mxGeometry>
        </mxCell>
        <mxCell id="HzqRPyfF4sRls6DlDqLv-72" value="&lt;font&gt;&lt;span style=&quot;font-size: 15px;&quot;&gt;- solver&lt;/span&gt;&lt;/font&gt;" style="edgeLabel;html=1;align=center;verticalAlign=middle;resizable=0;points=[];fontFamily=Courier New;" parent="HzqRPyfF4sRls6DlDqLv-70" vertex="1" connectable="0">
          <mxGeometry x="0.87" relative="1" as="geometry">
            <mxPoint x="44" y="8" as="offset" />
          </mxGeometry>
        </mxCell>
        <mxCell id="HzqRPyfF4sRls6DlDqLv-73" value="" style="endArrow=openThin;html=1;rounded=0;dashed=1;endFill=0;endSize=12;edgeStyle=orthogonalEdgeStyle;fontFamily=Courier New;" parent="1" source="HzqRPyfF4sRls6DlDqLv-64" target="HzqRPyfF4sRls6DlDqLv-61" edge="1">
          <mxGeometry width="50" height="50" relative="1" as="geometry">
            <mxPoint x="330" y="1420" as="sourcePoint" />
            <mxPoint x="380" y="1370" as="targetPoint" />
          </mxGeometry>
        </mxCell>
        <mxCell id="HzqRPyfF4sRls6DlDqLv-83" value="РунгеКутта4" style="swimlane;fontStyle=1;align=center;verticalAlign=top;childLayout=stackLayout;horizontal=1;startSize=26;horizontalStack=0;resizeParent=1;resizeParentMax=0;resizeLast=0;collapsible=1;marginBottom=0;whiteSpace=wrap;html=1;fontFamily=Courier New;" parent="1" vertex="1">
          <mxGeometry x="360" y="1490" width="270" height="120" as="geometry" />
        </mxCell>
        <mxCell id="HzqRPyfF4sRls6DlDqLv-84" value="" style="line;strokeWidth=1;fillColor=none;align=left;verticalAlign=middle;spacingTop=-1;spacingLeft=3;spacingRight=3;rotatable=0;labelPosition=right;points=[];portConstraint=eastwest;strokeColor=inherit;fontFamily=Courier New;" parent="HzqRPyfF4sRls6DlDqLv-83" vertex="1">
          <mxGeometry y="26" width="270" height="8" as="geometry" />
        </mxCell>
        <mxCell id="HzqRPyfF4sRls6DlDqLv-85" value="+ solve( previous_t : Real&lt;br style=&quot;border-color: var(--border-color);&quot;&gt;&amp;nbsp; &amp;nbsp; &amp;nbsp; &amp;nbsp;, next_t&amp;nbsp; &amp;nbsp; &amp;nbsp;: Real&lt;br style=&quot;border-color: var(--border-color);&quot;&gt;&amp;nbsp; &amp;nbsp; &amp;nbsp; &amp;nbsp;, previous_y : array of Real&lt;br style=&quot;border-color: var(--border-color);&quot;&gt;&amp;nbsp; &amp;nbsp; &amp;nbsp; &amp;nbsp;, ode : СистемаОду&lt;br style=&quot;border-color: var(--border-color);&quot;&gt;&amp;nbsp; &amp;nbsp; &amp;nbsp; &amp;nbsp;): array of Real" style="text;strokeColor=none;fillColor=none;align=left;verticalAlign=top;spacingLeft=4;spacingRight=4;overflow=hidden;rotatable=0;points=[[0,0.5],[1,0.5]];portConstraint=eastwest;whiteSpace=wrap;html=1;fontFamily=Courier New;" parent="HzqRPyfF4sRls6DlDqLv-83" vertex="1">
          <mxGeometry y="34" width="270" height="86" as="geometry" />
        </mxCell>
        <mxCell id="HzqRPyfF4sRls6DlDqLv-86" value="РунгеКуттаФельберг" style="swimlane;fontStyle=1;align=center;verticalAlign=top;childLayout=stackLayout;horizontal=1;startSize=26;horizontalStack=0;resizeParent=1;resizeParentMax=0;resizeLast=0;collapsible=1;marginBottom=0;whiteSpace=wrap;html=1;fontFamily=Courier New;" parent="1" vertex="1">
          <mxGeometry x="740" y="1490" width="270" height="148" as="geometry" />
        </mxCell>
        <mxCell id="HzqRPyfF4sRls6DlDqLv-87" value="+ epsilon: Real&lt;br&gt;+ recalculate_limit: Integer" style="text;strokeColor=none;fillColor=none;align=left;verticalAlign=top;spacingLeft=4;spacingRight=4;overflow=hidden;rotatable=0;points=[[0,0.5],[1,0.5]];portConstraint=eastwest;whiteSpace=wrap;html=1;fontFamily=Courier New;" parent="HzqRPyfF4sRls6DlDqLv-86" vertex="1">
          <mxGeometry y="26" width="270" height="34" as="geometry" />
        </mxCell>
        <mxCell id="HzqRPyfF4sRls6DlDqLv-88" value="" style="line;strokeWidth=1;fillColor=none;align=left;verticalAlign=middle;spacingTop=-1;spacingLeft=3;spacingRight=3;rotatable=0;labelPosition=right;points=[];portConstraint=eastwest;strokeColor=inherit;fontFamily=Courier New;" parent="HzqRPyfF4sRls6DlDqLv-86" vertex="1">
          <mxGeometry y="60" width="270" height="8" as="geometry" />
        </mxCell>
        <mxCell id="HzqRPyfF4sRls6DlDqLv-89" value="+ solve( previous_t : Real&lt;br style=&quot;border-color: var(--border-color);&quot;&gt;&amp;nbsp; &amp;nbsp; &amp;nbsp; &amp;nbsp;, next_t&amp;nbsp; &amp;nbsp; &amp;nbsp;: Real&lt;br style=&quot;border-color: var(--border-color);&quot;&gt;&amp;nbsp; &amp;nbsp; &amp;nbsp; &amp;nbsp;, previous_y : array of Real&lt;br style=&quot;border-color: var(--border-color);&quot;&gt;&amp;nbsp; &amp;nbsp; &amp;nbsp; &amp;nbsp;, ode : СистемаОду&lt;br style=&quot;border-color: var(--border-color);&quot;&gt;&amp;nbsp; &amp;nbsp; &amp;nbsp; &amp;nbsp;): array of Real" style="text;strokeColor=none;fillColor=none;align=left;verticalAlign=top;spacingLeft=4;spacingRight=4;overflow=hidden;rotatable=0;points=[[0,0.5],[1,0.5]];portConstraint=eastwest;whiteSpace=wrap;html=1;fontFamily=Courier New;" parent="HzqRPyfF4sRls6DlDqLv-86" vertex="1">
          <mxGeometry y="68" width="270" height="80" as="geometry" />
        </mxCell>
        <mxCell id="HzqRPyfF4sRls6DlDqLv-91" value="" style="endArrow=block;html=1;rounded=0;endFill=0;endSize=10;fontFamily=Courier New;dashed=1;" parent="1" source="HzqRPyfF4sRls6DlDqLv-83" target="HzqRPyfF4sRls6DlDqLv-64" edge="1">
          <mxGeometry width="50" height="50" relative="1" as="geometry">
            <mxPoint x="370" y="1445" as="sourcePoint" />
            <mxPoint x="511" y="1350" as="targetPoint" />
          </mxGeometry>
        </mxCell>
        <mxCell id="HzqRPyfF4sRls6DlDqLv-92" value="" style="endArrow=block;html=1;rounded=0;endFill=0;endSize=10;fontFamily=Courier New;dashed=1;" parent="1" source="HzqRPyfF4sRls6DlDqLv-86" target="HzqRPyfF4sRls6DlDqLv-64" edge="1">
          <mxGeometry width="50" height="50" relative="1" as="geometry">
            <mxPoint x="558" y="1500" as="sourcePoint" />
            <mxPoint x="638" y="1410" as="targetPoint" />
          </mxGeometry>
        </mxCell>
        <mxCell id="HzqRPyfF4sRls6DlDqLv-93" value="&lt;span style=&quot;font-weight: normal;&quot;&gt;«интерфейс»&lt;br style=&quot;border-color: var(--border-color);&quot;&gt;&lt;/span&gt;Процедура" style="swimlane;fontStyle=1;align=center;verticalAlign=top;childLayout=stackLayout;horizontal=1;startSize=40;horizontalStack=0;resizeParent=1;resizeParentMax=0;resizeLast=0;collapsible=1;marginBottom=0;whiteSpace=wrap;html=1;fontFamily=Courier New;" parent="1" vertex="1">
          <mxGeometry x="947" y="1150" width="140" height="70" as="geometry" />
        </mxCell>
        <mxCell id="HzqRPyfF4sRls6DlDqLv-94" value="" style="line;strokeWidth=1;fillColor=none;align=left;verticalAlign=middle;spacingTop=-1;spacingLeft=3;spacingRight=3;rotatable=0;labelPosition=right;points=[];portConstraint=eastwest;strokeColor=inherit;fontFamily=Courier New;" parent="HzqRPyfF4sRls6DlDqLv-93" vertex="1">
          <mxGeometry y="40" width="140" height="8" as="geometry" />
        </mxCell>
        <mxCell id="HzqRPyfF4sRls6DlDqLv-95" value="+ call()" style="text;strokeColor=none;fillColor=none;align=left;verticalAlign=top;spacingLeft=4;spacingRight=4;overflow=hidden;rotatable=0;points=[[0,0.5],[1,0.5]];portConstraint=eastwest;whiteSpace=wrap;html=1;fontFamily=Courier New;" parent="HzqRPyfF4sRls6DlDqLv-93" vertex="1">
          <mxGeometry y="48" width="140" height="22" as="geometry" />
        </mxCell>
        <mxCell id="HzqRPyfF4sRls6DlDqLv-96" value="&lt;span style=&quot;font-weight: normal;&quot;&gt;«интерфейс»&lt;br style=&quot;border-color: var(--border-color);&quot;&gt;&lt;/span&gt;Актор" style="swimlane;fontStyle=1;align=center;verticalAlign=top;childLayout=stackLayout;horizontal=1;startSize=40;horizontalStack=0;resizeParent=1;resizeParentMax=0;resizeLast=0;collapsible=1;marginBottom=0;whiteSpace=wrap;html=1;fontFamily=Courier New;" parent="1" vertex="1">
          <mxGeometry x="730" y="730" width="220" height="88" as="geometry" />
        </mxCell>
        <mxCell id="HzqRPyfF4sRls6DlDqLv-97" value="" style="line;strokeWidth=1;fillColor=none;align=left;verticalAlign=middle;spacingTop=-1;spacingLeft=3;spacingRight=3;rotatable=0;labelPosition=right;points=[];portConstraint=eastwest;strokeColor=inherit;fontFamily=Courier New;" parent="HzqRPyfF4sRls6DlDqLv-96" vertex="1">
          <mxGeometry y="40" width="220" height="8" as="geometry" />
        </mxCell>
        <mxCell id="HzqRPyfF4sRls6DlDqLv-98" value="+ doStep( previous_t : Real&lt;br style=&quot;border-color: var(--border-color);&quot;&gt;&amp;nbsp; &amp;nbsp; &amp;nbsp; &amp;nbsp; , next_t&amp;nbsp; &amp;nbsp; &amp;nbsp;: Real )" style="text;strokeColor=none;fillColor=none;align=left;verticalAlign=top;spacingLeft=4;spacingRight=4;overflow=hidden;rotatable=0;points=[[0,0.5],[1,0.5]];portConstraint=eastwest;whiteSpace=wrap;html=1;fontFamily=Courier New;" parent="HzqRPyfF4sRls6DlDqLv-96" vertex="1">
          <mxGeometry y="48" width="220" height="40" as="geometry" />
        </mxCell>
        <mxCell id="HzqRPyfF4sRls6DlDqLv-102" value="Сцена" style="swimlane;fontStyle=1;align=center;verticalAlign=top;childLayout=stackLayout;horizontal=1;startSize=26;horizontalStack=0;resizeParent=1;resizeParentMax=0;resizeLast=0;collapsible=1;marginBottom=0;whiteSpace=wrap;html=1;fontFamily=Courier New;" parent="1" vertex="1">
          <mxGeometry x="1140" y="330" width="270" height="198" as="geometry" />
        </mxCell>
        <mxCell id="HzqRPyfF4sRls6DlDqLv-103" value="+ time&amp;nbsp; &amp;nbsp; &amp;nbsp; &amp;nbsp;: Real&lt;br&gt;+ delta_time : Real&lt;br&gt;+ end_time&amp;nbsp; &amp;nbsp;: Real&lt;br&gt;+ callback_period : Integer&lt;br&gt;+ realtime_mode&amp;nbsp; &amp;nbsp;: Boolean" style="text;strokeColor=none;fillColor=none;align=left;verticalAlign=top;spacingLeft=4;spacingRight=4;overflow=hidden;rotatable=0;points=[[0,0.5],[1,0.5]];portConstraint=eastwest;whiteSpace=wrap;html=1;fontFamily=Courier New;" parent="HzqRPyfF4sRls6DlDqLv-102" vertex="1">
          <mxGeometry y="26" width="270" height="84" as="geometry" />
        </mxCell>
        <mxCell id="HzqRPyfF4sRls6DlDqLv-104" value="" style="line;strokeWidth=1;fillColor=none;align=left;verticalAlign=middle;spacingTop=-1;spacingLeft=3;spacingRight=3;rotatable=0;labelPosition=right;points=[];portConstraint=eastwest;strokeColor=inherit;fontFamily=Courier New;" parent="HzqRPyfF4sRls6DlDqLv-102" vertex="1">
          <mxGeometry y="110" width="270" height="8" as="geometry" />
        </mxCell>
        <mxCell id="HzqRPyfF4sRls6DlDqLv-105" value="+ start()&lt;br&gt;+ addActor( actor_id : String&lt;br&gt;&amp;nbsp; &amp;nbsp; &amp;nbsp; &amp;nbsp; &amp;nbsp; , actor&amp;nbsp; &amp;nbsp; : Актор&amp;nbsp; )&lt;br&gt;+ removeActor(actor_id : String)&lt;br&gt;+ clearActors()" style="text;strokeColor=none;fillColor=none;align=left;verticalAlign=top;spacingLeft=4;spacingRight=4;overflow=hidden;rotatable=0;points=[[0,0.5],[1,0.5]];portConstraint=eastwest;whiteSpace=wrap;html=1;fontFamily=Courier New;" parent="HzqRPyfF4sRls6DlDqLv-102" vertex="1">
          <mxGeometry y="118" width="270" height="80" as="geometry" />
        </mxCell>
        <mxCell id="HzqRPyfF4sRls6DlDqLv-107" value="СловарьСтрокаАктор" style="swimlane;fontStyle=1;align=center;verticalAlign=top;childLayout=stackLayout;horizontal=1;startSize=30;horizontalStack=0;resizeParent=1;resizeParentMax=0;resizeLast=0;collapsible=1;marginBottom=0;whiteSpace=wrap;html=1;fontFamily=Courier New;" parent="1" vertex="1">
          <mxGeometry x="550" y="420" width="160" height="38" as="geometry" />
        </mxCell>
        <mxCell id="HzqRPyfF4sRls6DlDqLv-108" value="" style="line;strokeWidth=1;fillColor=none;align=left;verticalAlign=middle;spacingTop=-1;spacingLeft=3;spacingRight=3;rotatable=0;labelPosition=right;points=[];portConstraint=eastwest;strokeColor=inherit;fontFamily=Courier New;" parent="HzqRPyfF4sRls6DlDqLv-107" vertex="1">
          <mxGeometry y="30" width="160" height="8" as="geometry" />
        </mxCell>
        <mxCell id="HzqRPyfF4sRls6DlDqLv-113" style="edgeStyle=orthogonalEdgeStyle;rounded=0;orthogonalLoop=1;jettySize=auto;html=1;endArrow=diamondThin;endFill=1;endSize=15;startArrow=openThin;startFill=0;startSize=12;fontFamily=Courier New;" parent="1" source="HzqRPyfF4sRls6DlDqLv-145" target="HzqRPyfF4sRls6DlDqLv-107" edge="1">
          <mxGeometry relative="1" as="geometry">
            <mxPoint x="629.9999999999998" y="590" as="sourcePoint" />
            <mxPoint x="360" y="750" as="targetPoint" />
            <Array as="points" />
          </mxGeometry>
        </mxCell>
        <mxCell id="HzqRPyfF4sRls6DlDqLv-114" value="0..*" style="edgeLabel;html=1;align=center;verticalAlign=middle;resizable=0;points=[];fontSize=15;fontFamily=Courier New;labelBackgroundColor=none;" parent="HzqRPyfF4sRls6DlDqLv-113" vertex="1" connectable="0">
          <mxGeometry x="-0.9068" y="2" relative="1" as="geometry">
            <mxPoint x="22" y="-24" as="offset" />
          </mxGeometry>
        </mxCell>
        <mxCell id="HzqRPyfF4sRls6DlDqLv-122" value="&lt;font style=&quot;font-size: 15px;&quot;&gt;1&lt;/font&gt;" style="edgeLabel;html=1;align=center;verticalAlign=middle;resizable=0;points=[];fontSize=15;fontFamily=Courier New;" parent="HzqRPyfF4sRls6DlDqLv-113" vertex="1" connectable="0">
          <mxGeometry x="0.5265" y="-4" relative="1" as="geometry">
            <mxPoint x="-14" y="1" as="offset" />
          </mxGeometry>
        </mxCell>
        <mxCell id="HzqRPyfF4sRls6DlDqLv-119" style="edgeStyle=orthogonalEdgeStyle;rounded=0;orthogonalLoop=1;jettySize=auto;html=1;endArrow=diamondThin;endFill=1;endSize=15;startArrow=openThin;startFill=0;startSize=12;fontFamily=Courier New;" parent="1" source="HzqRPyfF4sRls6DlDqLv-96" target="HzqRPyfF4sRls6DlDqLv-145" edge="1">
          <mxGeometry relative="1" as="geometry">
            <mxPoint x="300" y="680" as="sourcePoint" />
            <mxPoint x="699.9999999999998" y="609.9999999999998" as="targetPoint" />
            <Array as="points">
              <mxPoint x="790" y="610" />
            </Array>
          </mxGeometry>
        </mxCell>
        <mxCell id="HzqRPyfF4sRls6DlDqLv-120" value="1" style="edgeLabel;html=1;align=center;verticalAlign=middle;resizable=0;points=[];fontSize=15;fontFamily=Courier New;" parent="HzqRPyfF4sRls6DlDqLv-119" vertex="1" connectable="0">
          <mxGeometry x="-0.9068" y="2" relative="1" as="geometry">
            <mxPoint x="12" y="-18" as="offset" />
          </mxGeometry>
        </mxCell>
        <mxCell id="HzqRPyfF4sRls6DlDqLv-126" value="&lt;font style=&quot;font-size: 15px;&quot;&gt;1&lt;/font&gt;" style="edgeLabel;html=1;align=center;verticalAlign=middle;resizable=0;points=[];fontFamily=Courier New;labelBackgroundColor=none;" parent="HzqRPyfF4sRls6DlDqLv-119" vertex="1" connectable="0">
          <mxGeometry x="0.8061" y="-1" relative="1" as="geometry">
            <mxPoint x="10" y="-9" as="offset" />
          </mxGeometry>
        </mxCell>
        <mxCell id="HzqRPyfF4sRls6DlDqLv-123" style="edgeStyle=orthogonalEdgeStyle;rounded=0;orthogonalLoop=1;jettySize=auto;html=1;endArrow=diamondThin;endFill=1;endSize=15;startArrow=openThin;startFill=0;startSize=12;fontFamily=Courier New;" parent="1" source="HzqRPyfF4sRls6DlDqLv-143" target="HzqRPyfF4sRls6DlDqLv-145" edge="1">
          <mxGeometry relative="1" as="geometry">
            <mxPoint x="479.9999999999998" y="390" as="sourcePoint" />
            <mxPoint x="559.9999999999998" y="609.9999999999998" as="targetPoint" />
            <Array as="points">
              <mxPoint x="440" y="610" />
            </Array>
          </mxGeometry>
        </mxCell>
        <mxCell id="HzqRPyfF4sRls6DlDqLv-124" value="1" style="edgeLabel;html=1;align=center;verticalAlign=middle;resizable=0;points=[];fontSize=15;fontFamily=Courier New;" parent="HzqRPyfF4sRls6DlDqLv-123" vertex="1" connectable="0">
          <mxGeometry x="-0.9068" y="2" relative="1" as="geometry">
            <mxPoint x="12" y="6" as="offset" />
          </mxGeometry>
        </mxCell>
        <mxCell id="HzqRPyfF4sRls6DlDqLv-125" value="&lt;font style=&quot;font-size: 15px;&quot;&gt;1&lt;/font&gt;" style="edgeLabel;html=1;align=center;verticalAlign=middle;resizable=0;points=[];fontSize=15;fontFamily=Courier New;labelBackgroundColor=none;" parent="HzqRPyfF4sRls6DlDqLv-123" vertex="1" connectable="0">
          <mxGeometry x="0.5265" y="-4" relative="1" as="geometry">
            <mxPoint x="41" y="-14" as="offset" />
          </mxGeometry>
        </mxCell>
        <mxCell id="HzqRPyfF4sRls6DlDqLv-133" style="edgeStyle=orthogonalEdgeStyle;rounded=0;orthogonalLoop=1;jettySize=auto;html=1;endArrow=diamondThin;endFill=0;endSize=15;startArrow=openThin;startFill=0;startSize=12;fontFamily=Courier New;" parent="1" source="HzqRPyfF4sRls6DlDqLv-93" target="HzqRPyfF4sRls6DlDqLv-102" edge="1">
          <mxGeometry relative="1" as="geometry">
            <mxPoint x="1210" y="1130" as="sourcePoint" />
            <mxPoint x="1210" y="964" as="targetPoint" />
            <Array as="points">
              <mxPoint x="1330" y="1190" />
            </Array>
          </mxGeometry>
        </mxCell>
        <mxCell id="HzqRPyfF4sRls6DlDqLv-134" value="0..1" style="edgeLabel;html=1;align=center;verticalAlign=middle;resizable=0;points=[];fontSize=15;fontFamily=Courier New;labelBackgroundColor=none;" parent="HzqRPyfF4sRls6DlDqLv-133" vertex="1" connectable="0">
          <mxGeometry x="-0.9068" y="2" relative="1" as="geometry">
            <mxPoint x="-9" y="-8" as="offset" />
          </mxGeometry>
        </mxCell>
        <mxCell id="HzqRPyfF4sRls6DlDqLv-135" value="&lt;font&gt;&lt;span style=&quot;font-size: 15px;&quot;&gt;+ callback&lt;/span&gt;&lt;/font&gt;" style="edgeLabel;html=1;align=center;verticalAlign=middle;resizable=0;points=[];fontFamily=Courier New;" parent="HzqRPyfF4sRls6DlDqLv-133" vertex="1" connectable="0">
          <mxGeometry x="0.87" relative="1" as="geometry">
            <mxPoint x="60" y="-27" as="offset" />
          </mxGeometry>
        </mxCell>
        <mxCell id="HzqRPyfF4sRls6DlDqLv-136" value="" style="endArrow=openThin;html=1;rounded=0;endFill=0;dashed=1;endSize=12;edgeStyle=orthogonalEdgeStyle;" parent="1" source="HzqRPyfF4sRls6DlDqLv-102" target="HzqRPyfF4sRls6DlDqLv-143" edge="1">
          <mxGeometry width="50" height="50" relative="1" as="geometry">
            <mxPoint x="820" y="490" as="sourcePoint" />
            <mxPoint x="539.9999999999998" y="369.9999999999998" as="targetPoint" />
            <Array as="points">
              <mxPoint x="840" y="370" />
              <mxPoint x="840" y="370" />
            </Array>
          </mxGeometry>
        </mxCell>
        <mxCell id="HzqRPyfF4sRls6DlDqLv-138" value="" style="endArrow=openThin;html=1;rounded=0;endFill=0;dashed=1;endSize=12;edgeStyle=orthogonalEdgeStyle;" parent="1" source="HzqRPyfF4sRls6DlDqLv-102" target="HzqRPyfF4sRls6DlDqLv-96" edge="1">
          <mxGeometry width="50" height="50" relative="1" as="geometry">
            <mxPoint x="1150" y="380" as="sourcePoint" />
            <mxPoint x="550" y="380" as="targetPoint" />
            <Array as="points">
              <mxPoint x="900" y="490" />
            </Array>
          </mxGeometry>
        </mxCell>
        <mxCell id="HzqRPyfF4sRls6DlDqLv-139" style="edgeStyle=orthogonalEdgeStyle;rounded=0;orthogonalLoop=1;jettySize=auto;html=1;endArrow=diamondThin;endFill=1;endSize=15;startArrow=openThin;startFill=0;startSize=12;fontFamily=Courier New;" parent="1" source="HzqRPyfF4sRls6DlDqLv-107" target="HzqRPyfF4sRls6DlDqLv-102" edge="1">
          <mxGeometry relative="1" as="geometry">
            <mxPoint x="810" y="519" as="sourcePoint" />
            <mxPoint x="720" y="399" as="targetPoint" />
            <Array as="points">
              <mxPoint x="990" y="439" />
              <mxPoint x="990" y="439" />
            </Array>
          </mxGeometry>
        </mxCell>
        <mxCell id="HzqRPyfF4sRls6DlDqLv-140" value="1" style="edgeLabel;html=1;align=center;verticalAlign=middle;resizable=0;points=[];fontSize=15;fontFamily=Courier New;labelBackgroundColor=none;" parent="HzqRPyfF4sRls6DlDqLv-139" vertex="1" connectable="0">
          <mxGeometry x="-0.9068" y="2" relative="1" as="geometry">
            <mxPoint x="8" y="-7" as="offset" />
          </mxGeometry>
        </mxCell>
        <mxCell id="HzqRPyfF4sRls6DlDqLv-141" value="&lt;font style=&quot;font-size: 15px;&quot;&gt;+ actors&lt;/font&gt;" style="edgeLabel;html=1;align=center;verticalAlign=middle;resizable=0;points=[];fontFamily=Courier New;labelBackgroundColor=none;" parent="HzqRPyfF4sRls6DlDqLv-139" vertex="1" connectable="0">
          <mxGeometry x="0.8061" y="-1" relative="1" as="geometry">
            <mxPoint x="-18" y="-20" as="offset" />
          </mxGeometry>
        </mxCell>
        <mxCell id="HzqRPyfF4sRls6DlDqLv-143" value="&lt;span style=&quot;font-weight: normal;&quot;&gt;«примитив»&lt;/span&gt;&lt;br&gt;String" style="swimlane;fontStyle=1;align=center;verticalAlign=top;childLayout=stackLayout;horizontal=1;startSize=38;horizontalStack=0;resizeParent=1;resizeParentMax=0;resizeLast=0;collapsible=1;marginBottom=0;whiteSpace=wrap;html=1;fontFamily=Courier New;" parent="1" vertex="1">
          <mxGeometry x="380" y="350" width="120" height="46" as="geometry" />
        </mxCell>
        <mxCell id="HzqRPyfF4sRls6DlDqLv-144" value="" style="line;strokeWidth=1;fillColor=none;align=left;verticalAlign=middle;spacingTop=-1;spacingLeft=3;spacingRight=3;rotatable=0;labelPosition=right;points=[];portConstraint=eastwest;strokeColor=inherit;fontFamily=Courier New;" parent="HzqRPyfF4sRls6DlDqLv-143" vertex="1">
          <mxGeometry y="38" width="120" height="8" as="geometry" />
        </mxCell>
        <mxCell id="HzqRPyfF4sRls6DlDqLv-145" value="ЗаписьСтрокаАктор" style="swimlane;fontStyle=1;align=center;verticalAlign=top;childLayout=stackLayout;horizontal=1;startSize=30;horizontalStack=0;resizeParent=1;resizeParentMax=0;resizeLast=0;collapsible=1;marginBottom=0;whiteSpace=wrap;html=1;fontFamily=Courier New;" parent="1" vertex="1">
          <mxGeometry x="555" y="590" width="150" height="38" as="geometry" />
        </mxCell>
        <mxCell id="HzqRPyfF4sRls6DlDqLv-146" value="" style="line;strokeWidth=1;fillColor=none;align=left;verticalAlign=middle;spacingTop=-1;spacingLeft=3;spacingRight=3;rotatable=0;labelPosition=right;points=[];portConstraint=eastwest;strokeColor=inherit;fontFamily=Courier New;" parent="HzqRPyfF4sRls6DlDqLv-145" vertex="1">
          <mxGeometry y="30" width="150" height="8" as="geometry" />
        </mxCell>
        <mxCell id="HzqRPyfF4sRls6DlDqLv-147" value="&lt;span style=&quot;font-weight: normal;&quot;&gt;«интерфейс»&lt;br style=&quot;border-color: var(--border-color);&quot;&gt;&lt;/span&gt;Модуль" style="swimlane;fontStyle=1;align=center;verticalAlign=top;childLayout=stackLayout;horizontal=1;startSize=40;horizontalStack=0;resizeParent=1;resizeParentMax=0;resizeLast=0;collapsible=1;marginBottom=0;whiteSpace=wrap;html=1;fontFamily=Courier New;" parent="1" vertex="1">
          <mxGeometry x="800" y="-10" width="260" height="70" as="geometry" />
        </mxCell>
        <mxCell id="HzqRPyfF4sRls6DlDqLv-148" value="" style="line;strokeWidth=1;fillColor=none;align=left;verticalAlign=middle;spacingTop=-1;spacingLeft=3;spacingRight=3;rotatable=0;labelPosition=right;points=[];portConstraint=eastwest;strokeColor=inherit;fontFamily=Courier New;" parent="HzqRPyfF4sRls6DlDqLv-147" vertex="1">
          <mxGeometry y="40" width="260" height="8" as="geometry" />
        </mxCell>
        <mxCell id="HzqRPyfF4sRls6DlDqLv-149" value="+ getNamespace(): ПространствоИмён" style="text;strokeColor=none;fillColor=none;align=left;verticalAlign=top;spacingLeft=4;spacingRight=4;overflow=hidden;rotatable=0;points=[[0,0.5],[1,0.5]];portConstraint=eastwest;whiteSpace=wrap;html=1;fontFamily=Courier New;" parent="HzqRPyfF4sRls6DlDqLv-147" vertex="1">
          <mxGeometry y="48" width="260" height="22" as="geometry" />
        </mxCell>
        <mxCell id="HzqRPyfF4sRls6DlDqLv-151" value="ПространствоИмён" style="swimlane;fontStyle=1;align=center;verticalAlign=top;childLayout=stackLayout;horizontal=1;startSize=30;horizontalStack=0;resizeParent=1;resizeParentMax=0;resizeLast=0;collapsible=1;marginBottom=0;whiteSpace=wrap;html=1;fontFamily=Courier New;" parent="1" vertex="1">
          <mxGeometry x="860" y="-130" width="140" height="38" as="geometry" />
        </mxCell>
        <mxCell id="HzqRPyfF4sRls6DlDqLv-152" value="" style="line;strokeWidth=1;fillColor=none;align=left;verticalAlign=middle;spacingTop=-1;spacingLeft=3;spacingRight=3;rotatable=0;labelPosition=right;points=[];portConstraint=eastwest;strokeColor=inherit;fontFamily=Courier New;" parent="HzqRPyfF4sRls6DlDqLv-151" vertex="1">
          <mxGeometry y="30" width="140" height="8" as="geometry" />
        </mxCell>
        <mxCell id="HzqRPyfF4sRls6DlDqLv-153" value="" style="endArrow=openThin;html=1;rounded=0;endFill=0;dashed=1;endSize=12;edgeStyle=orthogonalEdgeStyle;" parent="1" source="HzqRPyfF4sRls6DlDqLv-147" target="HzqRPyfF4sRls6DlDqLv-151" edge="1">
          <mxGeometry width="50" height="50" relative="1" as="geometry">
            <mxPoint x="805" y="-30" as="sourcePoint" />
            <mxPoint x="565" y="210" as="targetPoint" />
            <Array as="points">
              <mxPoint x="930" y="-70" />
              <mxPoint x="930" y="-70" />
            </Array>
          </mxGeometry>
        </mxCell>
        <mxCell id="HzqRPyfF4sRls6DlDqLv-156" value="МодульСцена" style="swimlane;fontStyle=1;align=center;verticalAlign=top;childLayout=stackLayout;horizontal=1;startSize=26;horizontalStack=0;resizeParent=1;resizeParentMax=0;resizeLast=0;collapsible=1;marginBottom=0;whiteSpace=wrap;html=1;fontFamily=Courier New;" parent="1" vertex="1">
          <mxGeometry x="800" y="150" width="260" height="60" as="geometry" />
        </mxCell>
        <mxCell id="HzqRPyfF4sRls6DlDqLv-158" value="" style="line;strokeWidth=1;fillColor=none;align=left;verticalAlign=middle;spacingTop=-1;spacingLeft=3;spacingRight=3;rotatable=0;labelPosition=right;points=[];portConstraint=eastwest;strokeColor=inherit;fontFamily=Courier New;" parent="HzqRPyfF4sRls6DlDqLv-156" vertex="1">
          <mxGeometry y="26" width="260" height="8" as="geometry" />
        </mxCell>
        <mxCell id="HzqRPyfF4sRls6DlDqLv-159" value="+ getNamespace(): ПространствоИмён" style="text;strokeColor=none;fillColor=none;align=left;verticalAlign=top;spacingLeft=4;spacingRight=4;overflow=hidden;rotatable=0;points=[[0,0.5],[1,0.5]];portConstraint=eastwest;whiteSpace=wrap;html=1;fontFamily=Courier New;" parent="HzqRPyfF4sRls6DlDqLv-156" vertex="1">
          <mxGeometry y="34" width="260" height="26" as="geometry" />
        </mxCell>
        <mxCell id="HzqRPyfF4sRls6DlDqLv-161" value="" style="endArrow=block;html=1;rounded=0;endFill=0;strokeWidth=1;endSize=10;fontFamily=Courier New;dashed=1;" parent="1" source="HzqRPyfF4sRls6DlDqLv-156" target="HzqRPyfF4sRls6DlDqLv-147" edge="1">
          <mxGeometry width="50" height="50" relative="1" as="geometry">
            <mxPoint x="752" y="142" as="sourcePoint" />
            <mxPoint x="630" y="50" as="targetPoint" />
          </mxGeometry>
        </mxCell>
        <mxCell id="HzqRPyfF4sRls6DlDqLv-162" style="edgeStyle=orthogonalEdgeStyle;rounded=0;orthogonalLoop=1;jettySize=auto;html=1;endArrow=diamondThin;endFill=1;endSize=15;startArrow=openThin;startFill=0;startSize=12;fontFamily=Courier New;" parent="1" source="HzqRPyfF4sRls6DlDqLv-102" target="HzqRPyfF4sRls6DlDqLv-156" edge="1">
          <mxGeometry relative="1" as="geometry">
            <mxPoint x="720" y="449" as="sourcePoint" />
            <mxPoint x="1150" y="449" as="targetPoint" />
            <Array as="points">
              <mxPoint x="1275" y="270" />
              <mxPoint x="930" y="270" />
            </Array>
          </mxGeometry>
        </mxCell>
        <mxCell id="HzqRPyfF4sRls6DlDqLv-163" value="1" style="edgeLabel;html=1;align=center;verticalAlign=middle;resizable=0;points=[];fontSize=15;fontFamily=Courier New;labelBackgroundColor=none;" parent="HzqRPyfF4sRls6DlDqLv-162" vertex="1" connectable="0">
          <mxGeometry x="-0.9068" y="2" relative="1" as="geometry">
            <mxPoint x="8" y="-7" as="offset" />
          </mxGeometry>
        </mxCell>
        <mxCell id="HzqRPyfF4sRls6DlDqLv-164" value="&lt;font style=&quot;font-size: 15px;&quot;&gt;- scene&lt;/font&gt;" style="edgeLabel;html=1;align=center;verticalAlign=middle;resizable=0;points=[];fontFamily=Courier New;labelBackgroundColor=none;" parent="HzqRPyfF4sRls6DlDqLv-162" vertex="1" connectable="0">
          <mxGeometry x="0.8061" y="-1" relative="1" as="geometry">
            <mxPoint x="39" y="-15" as="offset" />
          </mxGeometry>
        </mxCell>
      </root>
    </mxGraphModel>
  </diagram>
  <diagram id="KMOv2Drjtac78pJvNaLd" name="сервер">
    <mxGraphModel dx="2823" dy="1683" grid="0" gridSize="10" guides="1" tooltips="1" connect="1" arrows="1" fold="1" page="1" pageScale="1" pageWidth="1169" pageHeight="1654" math="0" shadow="0">
      <root>
        <mxCell id="0" />
        <mxCell id="1" parent="0" />
        <mxCell id="na-OlBl82aRNZoE5qiHN-1" value="Сервер" style="swimlane;fontStyle=1;align=center;verticalAlign=top;childLayout=stackLayout;horizontal=1;startSize=26;horizontalStack=0;resizeParent=1;resizeParentMax=0;resizeLast=0;collapsible=1;marginBottom=0;whiteSpace=wrap;html=1;fontFamily=Courier New;" parent="1" vertex="1">
          <mxGeometry x="518" y="770" width="286" height="88" as="geometry" />
        </mxCell>
        <mxCell id="na-OlBl82aRNZoE5qiHN-3" value="" style="line;strokeWidth=1;fillColor=none;align=left;verticalAlign=middle;spacingTop=-1;spacingLeft=3;spacingRight=3;rotatable=0;labelPosition=right;points=[];portConstraint=eastwest;strokeColor=inherit;fontFamily=Courier New;" parent="na-OlBl82aRNZoE5qiHN-1" vertex="1">
          <mxGeometry y="26" width="286" height="8" as="geometry" />
        </mxCell>
        <mxCell id="na-OlBl82aRNZoE5qiHN-4" value="- processInput(input : String): Result&lt;br&gt;- exit(code : Integer)&lt;br&gt;+ run(): Integer" style="text;strokeColor=none;fillColor=none;align=left;verticalAlign=top;spacingLeft=4;spacingRight=4;overflow=hidden;rotatable=0;points=[[0,0.5],[1,0.5]];portConstraint=eastwest;whiteSpace=wrap;html=1;fontFamily=Courier New;" parent="na-OlBl82aRNZoE5qiHN-1" vertex="1">
          <mxGeometry y="34" width="286" height="54" as="geometry" />
        </mxCell>
        <mxCell id="na-OlBl82aRNZoE5qiHN-5" value="&lt;div&gt;&lt;span style=&quot;font-weight: normal;&quot;&gt;«интерфейс»&lt;br&gt;&lt;/span&gt;&lt;/div&gt;Интерпретатор" style="swimlane;fontStyle=1;align=center;verticalAlign=top;childLayout=stackLayout;horizontal=1;startSize=40;horizontalStack=0;resizeParent=1;resizeParentMax=0;resizeLast=0;collapsible=1;marginBottom=0;whiteSpace=wrap;html=1;fontFamily=Courier New;" parent="1" vertex="1">
          <mxGeometry x="220" y="567" width="289" height="161" as="geometry" />
        </mxCell>
        <mxCell id="na-OlBl82aRNZoE5qiHN-7" value="" style="line;strokeWidth=1;fillColor=none;align=left;verticalAlign=middle;spacingTop=-1;spacingLeft=3;spacingRight=3;rotatable=0;labelPosition=right;points=[];portConstraint=eastwest;strokeColor=inherit;fontFamily=Courier New;" parent="na-OlBl82aRNZoE5qiHN-5" vertex="1">
          <mxGeometry y="40" width="289" height="8" as="geometry" />
        </mxCell>
        <mxCell id="na-OlBl82aRNZoE5qiHN-8" value="+ interpret(module : Модуль): Integer&lt;br&gt;+ isRunning(): Boolean&lt;br&gt;+ storeModule( module : Модуль&lt;br&gt;&amp;nbsp; &amp;nbsp; &amp;nbsp; &amp;nbsp; &amp;nbsp; &amp;nbsp; &amp;nbsp;, error&amp;nbsp; : String )&lt;br&gt;+ recieveMsg(msg : Сообщение)&lt;br&gt;+ pause()&lt;br&gt;+ stop()" style="text;strokeColor=none;fillColor=none;align=left;verticalAlign=top;spacingLeft=4;spacingRight=4;overflow=hidden;rotatable=0;points=[[0,0.5],[1,0.5]];portConstraint=eastwest;whiteSpace=wrap;html=1;fontFamily=Courier New;" parent="na-OlBl82aRNZoE5qiHN-5" vertex="1">
          <mxGeometry y="48" width="289" height="113" as="geometry" />
        </mxCell>
        <mxCell id="0rzfrfuvXZdRrJQidbAn-1" style="edgeStyle=orthogonalEdgeStyle;rounded=0;orthogonalLoop=1;jettySize=auto;html=1;endArrow=diamondThin;endFill=1;endSize=15;startSize=12;startArrow=openThin;startFill=0;fontFamily=Courier New;" parent="1" source="na-OlBl82aRNZoE5qiHN-20" target="na-OlBl82aRNZoE5qiHN-1" edge="1">
          <mxGeometry relative="1" as="geometry">
            <Array as="points">
              <mxPoint x="597" y="931" />
              <mxPoint x="597" y="931" />
            </Array>
          </mxGeometry>
        </mxCell>
        <mxCell id="vmK6YFX97otAiJu0AlU0-1" value="1" style="edgeLabel;html=1;align=center;verticalAlign=middle;resizable=0;points=[];fontFamily=Courier New;" parent="0rzfrfuvXZdRrJQidbAn-1" vertex="1" connectable="0">
          <mxGeometry x="0.8242" relative="1" as="geometry">
            <mxPoint x="10" y="84" as="offset" />
          </mxGeometry>
        </mxCell>
        <mxCell id="vmK6YFX97otAiJu0AlU0-2" value="- io_service" style="edgeLabel;html=1;align=center;verticalAlign=middle;resizable=0;points=[];fontFamily=Courier New;" parent="0rzfrfuvXZdRrJQidbAn-1" vertex="1" connectable="0">
          <mxGeometry x="0.7143" y="-1" relative="1" as="geometry">
            <mxPoint x="-49" y="10" as="offset" />
          </mxGeometry>
        </mxCell>
        <mxCell id="na-OlBl82aRNZoE5qiHN-20" value="&lt;div&gt;&lt;span style=&quot;font-weight: normal;&quot;&gt;«интерфейс»&lt;br&gt;&lt;/span&gt;&lt;/div&gt;СервисВводаВывода" style="swimlane;fontStyle=1;align=center;verticalAlign=top;childLayout=stackLayout;horizontal=1;startSize=40;horizontalStack=0;resizeParent=1;resizeParentMax=0;resizeLast=0;collapsible=1;marginBottom=0;whiteSpace=wrap;html=1;fontFamily=Courier New;" parent="1" vertex="1">
          <mxGeometry x="488" y="981" width="300" height="110" as="geometry" />
        </mxCell>
        <mxCell id="na-OlBl82aRNZoE5qiHN-22" value="" style="line;strokeWidth=1;fillColor=none;align=left;verticalAlign=middle;spacingTop=-1;spacingLeft=3;spacingRight=3;rotatable=0;labelPosition=right;points=[];portConstraint=eastwest;strokeColor=inherit;fontFamily=Courier New;" parent="na-OlBl82aRNZoE5qiHN-20" vertex="1">
          <mxGeometry y="40" width="300" height="8" as="geometry" />
        </mxCell>
        <mxCell id="na-OlBl82aRNZoE5qiHN-23" value="+ read (callback : ОбратныйВызовЧтения)&lt;br&gt;+ write(callback : ОбратныйВызовЗаписи)&lt;br&gt;+ stop()" style="text;strokeColor=none;fillColor=none;align=left;verticalAlign=top;spacingLeft=4;spacingRight=4;overflow=hidden;rotatable=0;points=[[0,0.5],[1,0.5]];portConstraint=eastwest;whiteSpace=wrap;html=1;fontFamily=Courier New;" parent="na-OlBl82aRNZoE5qiHN-20" vertex="1">
          <mxGeometry y="48" width="300" height="62" as="geometry" />
        </mxCell>
        <mxCell id="na-OlBl82aRNZoE5qiHN-28" value="ОбёрткаИнтерпретатора" style="swimlane;fontStyle=1;align=center;verticalAlign=top;childLayout=stackLayout;horizontal=1;startSize=26;horizontalStack=0;resizeParent=1;resizeParentMax=0;resizeLast=0;collapsible=1;marginBottom=0;whiteSpace=wrap;html=1;fontFamily=Courier New;" parent="1" vertex="1">
          <mxGeometry x="384" y="316" width="310" height="146" as="geometry" />
        </mxCell>
        <mxCell id="na-OlBl82aRNZoE5qiHN-30" value="" style="line;strokeWidth=1;fillColor=none;align=left;verticalAlign=middle;spacingTop=-1;spacingLeft=3;spacingRight=3;rotatable=0;labelPosition=right;points=[];portConstraint=eastwest;strokeColor=inherit;fontFamily=Courier New;" parent="na-OlBl82aRNZoE5qiHN-28" vertex="1">
          <mxGeometry y="26" width="310" height="8" as="geometry" />
        </mxCell>
        <mxCell id="na-OlBl82aRNZoE5qiHN-31" value="+ interpret(module : Модуль): Integer&lt;br style=&quot;border-color: var(--border-color);&quot;&gt;+ isRunning(): Boolean&lt;br style=&quot;border-color: var(--border-color);&quot;&gt;+ storeModule( module : Модуль&lt;br style=&quot;border-color: var(--border-color);&quot;&gt;&amp;nbsp; &amp;nbsp; &amp;nbsp; &amp;nbsp; &amp;nbsp; &amp;nbsp; &amp;nbsp;, error&amp;nbsp; : String )&lt;br style=&quot;border-color: var(--border-color);&quot;&gt;+ recieveMsg(msg : Сообщение)&lt;br style=&quot;border-color: var(--border-color);&quot;&gt;+ pause()&lt;br style=&quot;border-color: var(--border-color);&quot;&gt;+ stop()" style="text;strokeColor=none;fillColor=none;align=left;verticalAlign=top;spacingLeft=4;spacingRight=4;overflow=hidden;rotatable=0;points=[[0,0.5],[1,0.5]];portConstraint=eastwest;whiteSpace=wrap;html=1;fontFamily=Courier New;" parent="na-OlBl82aRNZoE5qiHN-28" vertex="1">
          <mxGeometry y="34" width="310" height="112" as="geometry" />
        </mxCell>
        <mxCell id="2gcLEqBq8YMOUbKn97yW-1" value="&lt;div&gt;&lt;span style=&quot;font-weight: normal;&quot;&gt;«интерфейс»&lt;br&gt;&lt;/span&gt;&lt;/div&gt;ОбработчикСообщений" style="swimlane;fontStyle=1;align=center;verticalAlign=top;childLayout=stackLayout;horizontal=1;startSize=40;horizontalStack=0;resizeParent=1;resizeParentMax=0;resizeLast=0;collapsible=1;marginBottom=0;whiteSpace=wrap;html=1;fontFamily=Courier New;" parent="1" vertex="1">
          <mxGeometry x="828" y="901" width="272" height="74" as="geometry" />
        </mxCell>
        <mxCell id="2gcLEqBq8YMOUbKn97yW-3" value="" style="line;strokeWidth=1;fillColor=none;align=left;verticalAlign=middle;spacingTop=-1;spacingLeft=3;spacingRight=3;rotatable=0;labelPosition=right;points=[];portConstraint=eastwest;strokeColor=inherit;fontFamily=Courier New;" parent="2gcLEqBq8YMOUbKn97yW-1" vertex="1">
          <mxGeometry y="40" width="272" height="8" as="geometry" />
        </mxCell>
        <mxCell id="2gcLEqBq8YMOUbKn97yW-4" value="+ handle(msg : QJsonObject): Integer" style="text;strokeColor=none;fillColor=none;align=left;verticalAlign=top;spacingLeft=4;spacingRight=4;overflow=hidden;rotatable=0;points=[[0,0.5],[1,0.5]];portConstraint=eastwest;whiteSpace=wrap;html=1;fontFamily=Courier New;" parent="2gcLEqBq8YMOUbKn97yW-1" vertex="1">
          <mxGeometry y="48" width="272" height="26" as="geometry" />
        </mxCell>
        <mxCell id="vmK6YFX97otAiJu0AlU0-3" value="СервисСтандартногоВводаВывода" style="swimlane;fontStyle=1;align=center;verticalAlign=top;childLayout=stackLayout;horizontal=1;startSize=26;horizontalStack=0;resizeParent=1;resizeParentMax=0;resizeLast=0;collapsible=1;marginBottom=0;whiteSpace=wrap;html=1;fontFamily=Courier New;" parent="1" vertex="1">
          <mxGeometry x="448" y="1171" width="380" height="130" as="geometry" />
        </mxCell>
        <mxCell id="vmK6YFX97otAiJu0AlU0-5" value="" style="line;strokeWidth=1;fillColor=none;align=left;verticalAlign=middle;spacingTop=-1;spacingLeft=3;spacingRight=3;rotatable=0;labelPosition=right;points=[];portConstraint=eastwest;strokeColor=inherit;fontFamily=Courier New;" parent="vmK6YFX97otAiJu0AlU0-3" vertex="1">
          <mxGeometry y="26" width="380" height="8" as="geometry" />
        </mxCell>
        <mxCell id="vmK6YFX97otAiJu0AlU0-6" value="- processAsyncRead( ec : boost::system::error_code&lt;br&gt;&amp;nbsp; &amp;nbsp; &amp;nbsp; &amp;nbsp; &amp;nbsp; &amp;nbsp; &amp;nbsp; &amp;nbsp; &amp;nbsp; , size : Integer )&lt;br&gt;- postAsyncRead()&lt;br&gt;+ read(callback : ОбратныйВызовЧтения)&lt;br style=&quot;border-color: var(--border-color);&quot;&gt;+ write(callback : ОбратныйВызовЗаписи)&lt;br style=&quot;border-color: var(--border-color);&quot;&gt;+ stop()" style="text;strokeColor=none;fillColor=none;align=left;verticalAlign=top;spacingLeft=4;spacingRight=4;overflow=hidden;rotatable=0;points=[[0,0.5],[1,0.5]];portConstraint=eastwest;whiteSpace=wrap;html=1;fontFamily=Courier New;" parent="vmK6YFX97otAiJu0AlU0-3" vertex="1">
          <mxGeometry y="34" width="380" height="96" as="geometry" />
        </mxCell>
        <mxCell id="d_8AK5jr8I3VeMZJ33nG-5" value="&lt;div&gt;&lt;span style=&quot;font-weight: normal;&quot;&gt;«интерфейс»&lt;br&gt;&lt;/span&gt;&lt;/div&gt;ОбратныйВызовЧтения" style="swimlane;fontStyle=1;align=center;verticalAlign=top;childLayout=stackLayout;horizontal=1;startSize=40;horizontalStack=0;resizeParent=1;resizeParentMax=0;resizeLast=0;collapsible=1;marginBottom=0;whiteSpace=wrap;html=1;fontFamily=Courier New;" parent="1" vertex="1">
          <mxGeometry x="108" y="1021" width="170" height="90" as="geometry" />
        </mxCell>
        <mxCell id="d_8AK5jr8I3VeMZJ33nG-7" value="" style="line;strokeWidth=1;fillColor=none;align=left;verticalAlign=middle;spacingTop=-1;spacingLeft=3;spacingRight=3;rotatable=0;labelPosition=right;points=[];portConstraint=eastwest;strokeColor=inherit;fontFamily=Courier New;" parent="d_8AK5jr8I3VeMZJ33nG-5" vertex="1">
          <mxGeometry y="40" width="170" height="8" as="geometry" />
        </mxCell>
        <mxCell id="d_8AK5jr8I3VeMZJ33nG-8" value="+ call( str : String&lt;br&gt;&amp;nbsp; &amp;nbsp; &amp;nbsp; , err : String )" style="text;strokeColor=none;fillColor=none;align=left;verticalAlign=top;spacingLeft=4;spacingRight=4;overflow=hidden;rotatable=0;points=[[0,0.5],[1,0.5]];portConstraint=eastwest;whiteSpace=wrap;html=1;fontFamily=Courier New;" parent="d_8AK5jr8I3VeMZJ33nG-5" vertex="1">
          <mxGeometry y="48" width="170" height="42" as="geometry" />
        </mxCell>
        <mxCell id="_iHwyuFROgDVgVYSqzai-1" value="" style="endArrow=openThin;html=1;rounded=0;endFill=0;dashed=1;endSize=12;edgeStyle=orthogonalEdgeStyle;" parent="1" source="d_8AK5jr8I3VeMZJ33nG-5" target="oYuJDjsVYUp7YgeTO0I7-1" edge="1">
          <mxGeometry width="50" height="50" relative="1" as="geometry">
            <mxPoint x="1188" y="671" as="sourcePoint" />
            <mxPoint x="168" y="919" as="targetPoint" />
            <Array as="points">
              <mxPoint x="188" y="981" />
              <mxPoint x="188" y="981" />
            </Array>
          </mxGeometry>
        </mxCell>
        <mxCell id="_iHwyuFROgDVgVYSqzai-2" value="&lt;div&gt;&lt;span style=&quot;font-weight: normal;&quot;&gt;«интерфейс»&lt;br&gt;&lt;/span&gt;&lt;/div&gt;ОбратныйВызовЗаписи" style="swimlane;fontStyle=1;align=center;verticalAlign=top;childLayout=stackLayout;horizontal=1;startSize=40;horizontalStack=0;resizeParent=1;resizeParentMax=0;resizeLast=0;collapsible=1;marginBottom=0;whiteSpace=wrap;html=1;fontFamily=Courier New;" parent="1" vertex="1">
          <mxGeometry x="318" y="855" width="170" height="90" as="geometry" />
        </mxCell>
        <mxCell id="_iHwyuFROgDVgVYSqzai-3" value="" style="line;strokeWidth=1;fillColor=none;align=left;verticalAlign=middle;spacingTop=-1;spacingLeft=3;spacingRight=3;rotatable=0;labelPosition=right;points=[];portConstraint=eastwest;strokeColor=inherit;fontFamily=Courier New;" parent="_iHwyuFROgDVgVYSqzai-2" vertex="1">
          <mxGeometry y="40" width="170" height="8" as="geometry" />
        </mxCell>
        <mxCell id="_iHwyuFROgDVgVYSqzai-4" value="+ call( str : String&lt;br&gt;&amp;nbsp; &amp;nbsp; &amp;nbsp; , err : String )" style="text;strokeColor=none;fillColor=none;align=left;verticalAlign=top;spacingLeft=4;spacingRight=4;overflow=hidden;rotatable=0;points=[[0,0.5],[1,0.5]];portConstraint=eastwest;whiteSpace=wrap;html=1;fontFamily=Courier New;" parent="_iHwyuFROgDVgVYSqzai-2" vertex="1">
          <mxGeometry y="48" width="170" height="42" as="geometry" />
        </mxCell>
        <mxCell id="_iHwyuFROgDVgVYSqzai-5" value="" style="endArrow=openThin;html=1;rounded=0;endFill=0;dashed=1;endSize=12;edgeStyle=orthogonalEdgeStyle;" parent="1" source="_iHwyuFROgDVgVYSqzai-2" target="oYuJDjsVYUp7YgeTO0I7-1" edge="1">
          <mxGeometry width="50" height="50" relative="1" as="geometry">
            <mxPoint x="198" y="751" as="sourcePoint" />
            <mxPoint x="228" y="900.0285714285715" as="targetPoint" />
            <Array as="points">
              <mxPoint x="118" y="900" />
            </Array>
          </mxGeometry>
        </mxCell>
        <mxCell id="jFgs_V_2P4KobzXsqhF9-1" value="" style="endArrow=block;html=1;rounded=0;endFill=0;endSize=10;fontFamily=Courier New;dashed=1;" parent="1" source="vmK6YFX97otAiJu0AlU0-3" target="na-OlBl82aRNZoE5qiHN-20" edge="1">
          <mxGeometry width="50" height="50" relative="1" as="geometry">
            <mxPoint x="638" y="1431" as="sourcePoint" />
            <mxPoint x="718" y="1341" as="targetPoint" />
          </mxGeometry>
        </mxCell>
        <mxCell id="jFgs_V_2P4KobzXsqhF9-4" value="" style="endArrow=openThin;html=1;rounded=0;endFill=0;dashed=1;endSize=12;edgeStyle=orthogonalEdgeStyle;" parent="1" source="na-OlBl82aRNZoE5qiHN-20" target="_iHwyuFROgDVgVYSqzai-2" edge="1">
          <mxGeometry width="50" height="50" relative="1" as="geometry">
            <mxPoint x="328" y="910" as="sourcePoint" />
            <mxPoint x="238" y="910" as="targetPoint" />
            <Array as="points">
              <mxPoint x="403" y="1021" />
            </Array>
          </mxGeometry>
        </mxCell>
        <mxCell id="jFgs_V_2P4KobzXsqhF9-5" value="" style="endArrow=openThin;html=1;rounded=0;endFill=0;dashed=1;endSize=12;edgeStyle=orthogonalEdgeStyle;" parent="1" source="na-OlBl82aRNZoE5qiHN-20" target="d_8AK5jr8I3VeMZJ33nG-5" edge="1">
          <mxGeometry width="50" height="50" relative="1" as="geometry">
            <mxPoint x="498" y="1031" as="sourcePoint" />
            <mxPoint x="413" y="955" as="targetPoint" />
            <Array as="points">
              <mxPoint x="368" y="1061" />
              <mxPoint x="368" y="1061" />
            </Array>
          </mxGeometry>
        </mxCell>
        <mxCell id="oYuJDjsVYUp7YgeTO0I7-1" value="&lt;span style=&quot;font-weight: normal;&quot;&gt;«примитив»&lt;/span&gt;&lt;br&gt;String" style="swimlane;fontStyle=1;align=center;verticalAlign=top;childLayout=stackLayout;horizontal=1;startSize=38;horizontalStack=0;resizeParent=1;resizeParentMax=0;resizeLast=0;collapsible=1;marginBottom=0;whiteSpace=wrap;html=1;fontFamily=Courier New;" parent="1" vertex="1">
          <mxGeometry x="108" y="877" width="120" height="46" as="geometry" />
        </mxCell>
        <mxCell id="oYuJDjsVYUp7YgeTO0I7-2" value="" style="line;strokeWidth=1;fillColor=none;align=left;verticalAlign=middle;spacingTop=-1;spacingLeft=3;spacingRight=3;rotatable=0;labelPosition=right;points=[];portConstraint=eastwest;strokeColor=inherit;fontFamily=Courier New;" parent="oYuJDjsVYUp7YgeTO0I7-1" vertex="1">
          <mxGeometry y="38" width="120" height="8" as="geometry" />
        </mxCell>
        <mxCell id="oYuJDjsVYUp7YgeTO0I7-3" style="edgeStyle=orthogonalEdgeStyle;rounded=0;orthogonalLoop=1;jettySize=auto;html=1;endArrow=diamondThin;endFill=1;endSize=15;startSize=12;startArrow=openThin;startFill=0;fontFamily=Courier New;" parent="1" source="GCzGzrYWqf671Uo-7Ya1-72" target="vmK6YFX97otAiJu0AlU0-3" edge="1">
          <mxGeometry relative="1" as="geometry">
            <mxPoint x="68" y="1201" as="sourcePoint" />
            <mxPoint x="648" y="877" as="targetPoint" />
            <Array as="points">
              <mxPoint x="391" y="1242" />
              <mxPoint x="391" y="1242" />
            </Array>
          </mxGeometry>
        </mxCell>
        <mxCell id="oYuJDjsVYUp7YgeTO0I7-5" value="- input_line" style="edgeLabel;html=1;align=center;verticalAlign=middle;resizable=0;points=[];fontFamily=Courier New;" parent="oYuJDjsVYUp7YgeTO0I7-3" vertex="1" connectable="0">
          <mxGeometry x="0.7143" y="-1" relative="1" as="geometry">
            <mxPoint x="-33" y="-12" as="offset" />
          </mxGeometry>
        </mxCell>
        <mxCell id="GCzGzrYWqf671Uo-7Ya1-74" value="1" style="edgeLabel;html=1;align=center;verticalAlign=middle;resizable=0;points=[];fontFamily=Courier New;" parent="oYuJDjsVYUp7YgeTO0I7-3" vertex="1" connectable="0">
          <mxGeometry x="-0.8012" relative="1" as="geometry">
            <mxPoint y="-12" as="offset" />
          </mxGeometry>
        </mxCell>
        <mxCell id="oYuJDjsVYUp7YgeTO0I7-8" style="edgeStyle=orthogonalEdgeStyle;rounded=0;orthogonalLoop=1;jettySize=auto;html=1;endArrow=diamondThin;endFill=1;endSize=15;startSize=12;startArrow=openThin;startFill=0;fontFamily=Courier New;" parent="1" source="GCzGzrYWqf671Uo-7Ya1-72" target="vmK6YFX97otAiJu0AlU0-3" edge="1">
          <mxGeometry relative="1" as="geometry">
            <mxPoint x="118" y="910" as="sourcePoint" />
            <mxPoint x="488" y="1271" as="targetPoint" />
            <Array as="points">
              <mxPoint x="211" y="1196" />
            </Array>
          </mxGeometry>
        </mxCell>
        <mxCell id="oYuJDjsVYUp7YgeTO0I7-9" value="1" style="edgeLabel;html=1;align=center;verticalAlign=middle;resizable=0;points=[];fontFamily=Courier New;" parent="oYuJDjsVYUp7YgeTO0I7-8" vertex="1" connectable="0">
          <mxGeometry x="0.8242" relative="1" as="geometry">
            <mxPoint x="-213" y="-12" as="offset" />
          </mxGeometry>
        </mxCell>
        <mxCell id="oYuJDjsVYUp7YgeTO0I7-10" value="- input_buffer" style="edgeLabel;html=1;align=center;verticalAlign=middle;resizable=0;points=[];fontFamily=Courier New;" parent="oYuJDjsVYUp7YgeTO0I7-8" vertex="1" connectable="0">
          <mxGeometry x="0.7143" y="-1" relative="1" as="geometry">
            <mxPoint x="-30" y="-14" as="offset" />
          </mxGeometry>
        </mxCell>
        <mxCell id="oYuJDjsVYUp7YgeTO0I7-11" style="edgeStyle=orthogonalEdgeStyle;rounded=0;orthogonalLoop=1;jettySize=auto;html=1;endArrow=diamondThin;endFill=1;endSize=15;startSize=12;startArrow=openThin;startFill=0;fontFamily=Courier New;" parent="1" source="GCzGzrYWqf671Uo-7Ya1-72" target="vmK6YFX97otAiJu0AlU0-3" edge="1">
          <mxGeometry relative="1" as="geometry">
            <mxPoint x="118" y="910" as="sourcePoint" />
            <mxPoint x="488" y="1271" as="targetPoint" />
            <Array as="points">
              <mxPoint x="189" y="1341" />
              <mxPoint x="568" y="1341" />
            </Array>
          </mxGeometry>
        </mxCell>
        <mxCell id="oYuJDjsVYUp7YgeTO0I7-12" value="0..*" style="edgeLabel;html=1;align=center;verticalAlign=middle;resizable=0;points=[];fontFamily=Courier New;" parent="oYuJDjsVYUp7YgeTO0I7-11" vertex="1" connectable="0">
          <mxGeometry x="0.8242" relative="1" as="geometry">
            <mxPoint x="-356" y="-51" as="offset" />
          </mxGeometry>
        </mxCell>
        <mxCell id="oYuJDjsVYUp7YgeTO0I7-13" value="- output_buffers" style="edgeLabel;html=1;align=center;verticalAlign=middle;resizable=0;points=[];fontFamily=Courier New;" parent="oYuJDjsVYUp7YgeTO0I7-11" vertex="1" connectable="0">
          <mxGeometry x="0.7143" y="-1" relative="1" as="geometry">
            <mxPoint x="-31" y="-15" as="offset" />
          </mxGeometry>
        </mxCell>
        <mxCell id="oYuJDjsVYUp7YgeTO0I7-17" value="boost::asio::posix::stream_descriptor" style="swimlane;fontStyle=1;align=center;verticalAlign=top;childLayout=stackLayout;horizontal=1;startSize=26;horizontalStack=0;resizeParent=1;resizeParentMax=0;resizeLast=0;collapsible=1;marginBottom=0;whiteSpace=wrap;html=1;fontFamily=Courier New;" parent="1" vertex="1">
          <mxGeometry x="528" y="1381" width="320" height="34" as="geometry" />
        </mxCell>
        <mxCell id="oYuJDjsVYUp7YgeTO0I7-19" value="" style="line;strokeWidth=1;fillColor=none;align=left;verticalAlign=middle;spacingTop=-1;spacingLeft=3;spacingRight=3;rotatable=0;labelPosition=right;points=[];portConstraint=eastwest;strokeColor=inherit;fontFamily=Courier New;" parent="oYuJDjsVYUp7YgeTO0I7-17" vertex="1">
          <mxGeometry y="26" width="320" height="8" as="geometry" />
        </mxCell>
        <mxCell id="oYuJDjsVYUp7YgeTO0I7-21" style="edgeStyle=orthogonalEdgeStyle;rounded=0;orthogonalLoop=1;jettySize=auto;html=1;endArrow=diamondThin;endFill=1;endSize=15;startSize=12;startArrow=openThin;startFill=0;fontFamily=Courier New;" parent="1" source="oYuJDjsVYUp7YgeTO0I7-17" target="vmK6YFX97otAiJu0AlU0-3" edge="1">
          <mxGeometry relative="1" as="geometry">
            <mxPoint x="178" y="887" as="sourcePoint" />
            <mxPoint x="648" y="1275" as="targetPoint" />
            <Array as="points">
              <mxPoint x="664" y="1342" />
              <mxPoint x="664" y="1342" />
            </Array>
          </mxGeometry>
        </mxCell>
        <mxCell id="oYuJDjsVYUp7YgeTO0I7-22" value="1" style="edgeLabel;html=1;align=center;verticalAlign=middle;resizable=0;points=[];fontFamily=Courier New;" parent="oYuJDjsVYUp7YgeTO0I7-21" vertex="1" connectable="0">
          <mxGeometry x="0.8242" relative="1" as="geometry">
            <mxPoint x="-11" y="51" as="offset" />
          </mxGeometry>
        </mxCell>
        <mxCell id="oYuJDjsVYUp7YgeTO0I7-23" value="- in" style="edgeLabel;html=1;align=center;verticalAlign=middle;resizable=0;points=[];fontFamily=Courier New;" parent="oYuJDjsVYUp7YgeTO0I7-21" vertex="1" connectable="0">
          <mxGeometry x="0.7143" y="-1" relative="1" as="geometry">
            <mxPoint x="19" y="9" as="offset" />
          </mxGeometry>
        </mxCell>
        <mxCell id="oYuJDjsVYUp7YgeTO0I7-24" style="edgeStyle=orthogonalEdgeStyle;rounded=0;orthogonalLoop=1;jettySize=auto;html=1;endArrow=diamondThin;endFill=1;endSize=15;startSize=12;startArrow=openThin;startFill=0;fontFamily=Courier New;" parent="1" source="oYuJDjsVYUp7YgeTO0I7-17" target="vmK6YFX97otAiJu0AlU0-3" edge="1">
          <mxGeometry relative="1" as="geometry">
            <mxPoint x="658" y="1391" as="sourcePoint" />
            <mxPoint x="658" y="1275" as="targetPoint" />
            <Array as="points">
              <mxPoint x="758" y="1342" />
              <mxPoint x="758" y="1342" />
            </Array>
          </mxGeometry>
        </mxCell>
        <mxCell id="oYuJDjsVYUp7YgeTO0I7-25" value="1" style="edgeLabel;html=1;align=center;verticalAlign=middle;resizable=0;points=[];fontFamily=Courier New;" parent="oYuJDjsVYUp7YgeTO0I7-24" vertex="1" connectable="0">
          <mxGeometry x="0.8242" relative="1" as="geometry">
            <mxPoint x="-11" y="52" as="offset" />
          </mxGeometry>
        </mxCell>
        <mxCell id="oYuJDjsVYUp7YgeTO0I7-26" value="- out" style="edgeLabel;html=1;align=center;verticalAlign=middle;resizable=0;points=[];fontFamily=Courier New;" parent="oYuJDjsVYUp7YgeTO0I7-24" vertex="1" connectable="0">
          <mxGeometry x="0.7143" y="-1" relative="1" as="geometry">
            <mxPoint x="22" y="9" as="offset" />
          </mxGeometry>
        </mxCell>
        <mxCell id="oYuJDjsVYUp7YgeTO0I7-27" style="edgeStyle=orthogonalEdgeStyle;rounded=0;orthogonalLoop=1;jettySize=auto;html=1;endArrow=diamondThin;endFill=1;endSize=15;startSize=12;startArrow=openThin;startFill=0;fontFamily=Courier New;" parent="1" source="GCzGzrYWqf671Uo-7Ya1-72" target="vmK6YFX97otAiJu0AlU0-3" edge="1">
          <mxGeometry relative="1" as="geometry">
            <mxPoint x="158" y="933" as="sourcePoint" />
            <mxPoint x="488" y="1211" as="targetPoint" />
            <Array as="points">
              <mxPoint x="162" y="1141" />
              <mxPoint x="558" y="1141" />
            </Array>
          </mxGeometry>
        </mxCell>
        <mxCell id="oYuJDjsVYUp7YgeTO0I7-28" value="1" style="edgeLabel;html=1;align=center;verticalAlign=middle;resizable=0;points=[];fontFamily=Courier New;" parent="oYuJDjsVYUp7YgeTO0I7-27" vertex="1" connectable="0">
          <mxGeometry x="0.8242" relative="1" as="geometry">
            <mxPoint x="-372" y="54" as="offset" />
          </mxGeometry>
        </mxCell>
        <mxCell id="oYuJDjsVYUp7YgeTO0I7-29" value="- read_callback" style="edgeLabel;html=1;align=center;verticalAlign=middle;resizable=0;points=[];fontFamily=Courier New;" parent="oYuJDjsVYUp7YgeTO0I7-27" vertex="1" connectable="0">
          <mxGeometry x="0.7143" y="-1" relative="1" as="geometry">
            <mxPoint x="-14" y="-14" as="offset" />
          </mxGeometry>
        </mxCell>
        <mxCell id="oYuJDjsVYUp7YgeTO0I7-31" value="std::mutex" style="swimlane;fontStyle=1;align=center;verticalAlign=top;childLayout=stackLayout;horizontal=1;startSize=26;horizontalStack=0;resizeParent=1;resizeParentMax=0;resizeLast=0;collapsible=1;marginBottom=0;whiteSpace=wrap;html=1;fontFamily=Courier New;" parent="1" vertex="1">
          <mxGeometry x="889" y="1324" width="106" height="34" as="geometry" />
        </mxCell>
        <mxCell id="oYuJDjsVYUp7YgeTO0I7-32" value="" style="line;strokeWidth=1;fillColor=none;align=left;verticalAlign=middle;spacingTop=-1;spacingLeft=3;spacingRight=3;rotatable=0;labelPosition=right;points=[];portConstraint=eastwest;strokeColor=inherit;fontFamily=Courier New;" parent="oYuJDjsVYUp7YgeTO0I7-31" vertex="1">
          <mxGeometry y="26" width="106" height="8" as="geometry" />
        </mxCell>
        <mxCell id="oYuJDjsVYUp7YgeTO0I7-33" style="edgeStyle=orthogonalEdgeStyle;rounded=0;orthogonalLoop=1;jettySize=auto;html=1;endArrow=diamondThin;endFill=1;endSize=15;startSize=12;startArrow=openThin;startFill=0;fontFamily=Courier New;" parent="1" source="oYuJDjsVYUp7YgeTO0I7-31" target="vmK6YFX97otAiJu0AlU0-3" edge="1">
          <mxGeometry relative="1" as="geometry">
            <mxPoint x="768" y="1391" as="sourcePoint" />
            <mxPoint x="768" y="1311" as="targetPoint" />
            <Array as="points">
              <mxPoint x="942" y="1271" />
            </Array>
          </mxGeometry>
        </mxCell>
        <mxCell id="oYuJDjsVYUp7YgeTO0I7-34" value="1" style="edgeLabel;html=1;align=center;verticalAlign=middle;resizable=0;points=[];fontFamily=Courier New;" parent="oYuJDjsVYUp7YgeTO0I7-33" vertex="1" connectable="0">
          <mxGeometry x="0.8242" relative="1" as="geometry">
            <mxPoint x="107" y="30" as="offset" />
          </mxGeometry>
        </mxCell>
        <mxCell id="oYuJDjsVYUp7YgeTO0I7-35" value="- output_buffers_m" style="edgeLabel;html=1;align=center;verticalAlign=middle;resizable=0;points=[];fontFamily=Courier New;" parent="oYuJDjsVYUp7YgeTO0I7-33" vertex="1" connectable="0">
          <mxGeometry x="0.7143" y="-1" relative="1" as="geometry">
            <mxPoint x="55" y="-11" as="offset" />
          </mxGeometry>
        </mxCell>
        <mxCell id="oYuJDjsVYUp7YgeTO0I7-36" value="boost::system::error_code" style="swimlane;fontStyle=1;align=center;verticalAlign=top;childLayout=stackLayout;horizontal=1;startSize=26;horizontalStack=0;resizeParent=1;resizeParentMax=0;resizeLast=0;collapsible=1;marginBottom=0;whiteSpace=wrap;html=1;fontFamily=Courier New;" parent="1" vertex="1">
          <mxGeometry x="913" y="1188" width="215" height="34" as="geometry" />
        </mxCell>
        <mxCell id="oYuJDjsVYUp7YgeTO0I7-37" value="" style="line;strokeWidth=1;fillColor=none;align=left;verticalAlign=middle;spacingTop=-1;spacingLeft=3;spacingRight=3;rotatable=0;labelPosition=right;points=[];portConstraint=eastwest;strokeColor=inherit;fontFamily=Courier New;" parent="oYuJDjsVYUp7YgeTO0I7-36" vertex="1">
          <mxGeometry y="26" width="215" height="8" as="geometry" />
        </mxCell>
        <mxCell id="oYuJDjsVYUp7YgeTO0I7-41" value="" style="endArrow=openThin;html=1;rounded=0;endFill=0;dashed=1;endSize=12;edgeStyle=orthogonalEdgeStyle;" parent="1" source="vmK6YFX97otAiJu0AlU0-3" target="oYuJDjsVYUp7YgeTO0I7-36" edge="1">
          <mxGeometry width="50" height="50" relative="1" as="geometry">
            <mxPoint x="498" y="1071" as="sourcePoint" />
            <mxPoint x="288" y="1071" as="targetPoint" />
            <Array as="points">
              <mxPoint x="861" y="1206" />
              <mxPoint x="861" y="1206" />
            </Array>
          </mxGeometry>
        </mxCell>
        <mxCell id="oYuJDjsVYUp7YgeTO0I7-42" value="boost::asio::thread_pool" style="swimlane;fontStyle=1;align=center;verticalAlign=top;childLayout=stackLayout;horizontal=1;startSize=26;horizontalStack=0;resizeParent=1;resizeParentMax=0;resizeLast=0;collapsible=1;marginBottom=0;whiteSpace=wrap;html=1;fontFamily=Courier New;" parent="1" vertex="1">
          <mxGeometry x="545" y="576" width="215" height="34" as="geometry" />
        </mxCell>
        <mxCell id="oYuJDjsVYUp7YgeTO0I7-43" value="" style="line;strokeWidth=1;fillColor=none;align=left;verticalAlign=middle;spacingTop=-1;spacingLeft=3;spacingRight=3;rotatable=0;labelPosition=right;points=[];portConstraint=eastwest;strokeColor=inherit;fontFamily=Courier New;" parent="oYuJDjsVYUp7YgeTO0I7-42" vertex="1">
          <mxGeometry y="26" width="215" height="8" as="geometry" />
        </mxCell>
        <mxCell id="oYuJDjsVYUp7YgeTO0I7-44" value="boost::asio::io_service" style="swimlane;fontStyle=1;align=center;verticalAlign=top;childLayout=stackLayout;horizontal=1;startSize=26;horizontalStack=0;resizeParent=1;resizeParentMax=0;resizeLast=0;collapsible=1;marginBottom=0;whiteSpace=wrap;html=1;fontFamily=Courier New;" parent="1" vertex="1">
          <mxGeometry x="752" y="649" width="215" height="34" as="geometry" />
        </mxCell>
        <mxCell id="oYuJDjsVYUp7YgeTO0I7-45" value="" style="line;strokeWidth=1;fillColor=none;align=left;verticalAlign=middle;spacingTop=-1;spacingLeft=3;spacingRight=3;rotatable=0;labelPosition=right;points=[];portConstraint=eastwest;strokeColor=inherit;fontFamily=Courier New;" parent="oYuJDjsVYUp7YgeTO0I7-44" vertex="1">
          <mxGeometry y="26" width="215" height="8" as="geometry" />
        </mxCell>
        <mxCell id="oYuJDjsVYUp7YgeTO0I7-46" value="Result" style="swimlane;fontStyle=1;align=center;verticalAlign=top;childLayout=stackLayout;horizontal=1;startSize=26;horizontalStack=0;resizeParent=1;resizeParentMax=0;resizeLast=0;collapsible=1;marginBottom=0;whiteSpace=wrap;html=1;fontFamily=Courier New;" parent="1" vertex="1">
          <mxGeometry x="981" y="782" width="163" height="71" as="geometry" />
        </mxCell>
        <mxCell id="oYuJDjsVYUp7YgeTO0I7-47" value="+ finished : Boolean&lt;br&gt;+ code&amp;nbsp; &amp;nbsp; &amp;nbsp;: Integer" style="text;strokeColor=none;fillColor=none;align=left;verticalAlign=top;spacingLeft=4;spacingRight=4;overflow=hidden;rotatable=0;points=[[0,0.5],[1,0.5]];portConstraint=eastwest;whiteSpace=wrap;html=1;fontFamily=Courier New;" parent="oYuJDjsVYUp7YgeTO0I7-46" vertex="1">
          <mxGeometry y="26" width="163" height="37" as="geometry" />
        </mxCell>
        <mxCell id="oYuJDjsVYUp7YgeTO0I7-48" value="" style="line;strokeWidth=1;fillColor=none;align=left;verticalAlign=middle;spacingTop=-1;spacingLeft=3;spacingRight=3;rotatable=0;labelPosition=right;points=[];portConstraint=eastwest;strokeColor=inherit;fontFamily=Courier New;" parent="oYuJDjsVYUp7YgeTO0I7-46" vertex="1">
          <mxGeometry y="63" width="163" height="8" as="geometry" />
        </mxCell>
        <mxCell id="-eDzR6JmnhonBKYW2Ush-1" value="" style="endArrow=openThin;html=1;rounded=0;endFill=0;dashed=1;endSize=12;edgeStyle=orthogonalEdgeStyle;" parent="1" source="na-OlBl82aRNZoE5qiHN-1" target="oYuJDjsVYUp7YgeTO0I7-46" edge="1">
          <mxGeometry width="50" height="50" relative="1" as="geometry">
            <mxPoint x="838" y="1241" as="sourcePoint" />
            <mxPoint x="1005" y="1241" as="targetPoint" />
            <Array as="points">
              <mxPoint x="895" y="802" />
              <mxPoint x="895" y="802" />
            </Array>
          </mxGeometry>
        </mxCell>
        <mxCell id="-eDzR6JmnhonBKYW2Ush-2" style="edgeStyle=orthogonalEdgeStyle;rounded=0;orthogonalLoop=1;jettySize=auto;html=1;endArrow=diamondThin;endFill=1;endSize=15;startSize=12;startArrow=openThin;startFill=0;fontFamily=Courier New;" parent="1" source="oYuJDjsVYUp7YgeTO0I7-46" target="na-OlBl82aRNZoE5qiHN-1" edge="1">
          <mxGeometry relative="1" as="geometry">
            <mxPoint x="648" y="991" as="sourcePoint" />
            <mxPoint x="648" y="877" as="targetPoint" />
            <Array as="points">
              <mxPoint x="892" y="830" />
              <mxPoint x="892" y="830" />
            </Array>
          </mxGeometry>
        </mxCell>
        <mxCell id="-eDzR6JmnhonBKYW2Ush-3" value="1" style="edgeLabel;html=1;align=center;verticalAlign=middle;resizable=0;points=[];fontFamily=Courier New;" parent="-eDzR6JmnhonBKYW2Ush-2" vertex="1" connectable="0">
          <mxGeometry x="0.8242" relative="1" as="geometry">
            <mxPoint x="141" y="11" as="offset" />
          </mxGeometry>
        </mxCell>
        <mxCell id="-eDzR6JmnhonBKYW2Ush-4" value="- result" style="edgeLabel;html=1;align=center;verticalAlign=middle;resizable=0;points=[];fontFamily=Courier New;" parent="-eDzR6JmnhonBKYW2Ush-2" vertex="1" connectable="0">
          <mxGeometry x="0.7143" y="-1" relative="1" as="geometry">
            <mxPoint x="24" y="-9" as="offset" />
          </mxGeometry>
        </mxCell>
        <mxCell id="-eDzR6JmnhonBKYW2Ush-5" style="edgeStyle=orthogonalEdgeStyle;rounded=0;orthogonalLoop=1;jettySize=auto;html=1;endArrow=diamondThin;endFill=1;endSize=15;startSize=12;startArrow=openThin;startFill=0;fontFamily=Courier New;" parent="1" source="oYuJDjsVYUp7YgeTO0I7-42" target="na-OlBl82aRNZoE5qiHN-1" edge="1">
          <mxGeometry relative="1" as="geometry">
            <mxPoint x="868" y="815" as="sourcePoint" />
            <mxPoint x="728" y="815" as="targetPoint" />
            <Array as="points">
              <mxPoint x="633" y="664" />
              <mxPoint x="633" y="664" />
            </Array>
          </mxGeometry>
        </mxCell>
        <mxCell id="-eDzR6JmnhonBKYW2Ush-6" value="1" style="edgeLabel;html=1;align=center;verticalAlign=middle;resizable=0;points=[];fontFamily=Courier New;" parent="-eDzR6JmnhonBKYW2Ush-5" vertex="1" connectable="0">
          <mxGeometry x="0.8242" relative="1" as="geometry">
            <mxPoint x="10" y="-125" as="offset" />
          </mxGeometry>
        </mxCell>
        <mxCell id="-eDzR6JmnhonBKYW2Ush-7" value="- io_pool" style="edgeLabel;html=1;align=center;verticalAlign=middle;resizable=0;points=[];fontFamily=Courier New;" parent="-eDzR6JmnhonBKYW2Ush-5" vertex="1" connectable="0">
          <mxGeometry x="0.7143" y="-1" relative="1" as="geometry">
            <mxPoint x="-34" y="-3" as="offset" />
          </mxGeometry>
        </mxCell>
        <mxCell id="-eDzR6JmnhonBKYW2Ush-8" style="edgeStyle=orthogonalEdgeStyle;rounded=0;orthogonalLoop=1;jettySize=auto;html=1;endArrow=diamondThin;endFill=1;endSize=15;startSize=12;startArrow=openThin;startFill=0;fontFamily=Courier New;" parent="1" source="oYuJDjsVYUp7YgeTO0I7-44" target="na-OlBl82aRNZoE5qiHN-1" edge="1">
          <mxGeometry relative="1" as="geometry">
            <mxPoint x="878" y="825" as="sourcePoint" />
            <mxPoint x="738" y="825" as="targetPoint" />
            <Array as="points">
              <mxPoint x="860" y="726" />
              <mxPoint x="709" y="726" />
            </Array>
          </mxGeometry>
        </mxCell>
        <mxCell id="-eDzR6JmnhonBKYW2Ush-9" value="1" style="edgeLabel;html=1;align=center;verticalAlign=middle;resizable=0;points=[];fontFamily=Courier New;" parent="-eDzR6JmnhonBKYW2Ush-8" vertex="1" connectable="0">
          <mxGeometry x="0.8242" relative="1" as="geometry">
            <mxPoint x="161" y="-46" as="offset" />
          </mxGeometry>
        </mxCell>
        <mxCell id="-eDzR6JmnhonBKYW2Ush-10" value="- io" style="edgeLabel;html=1;align=center;verticalAlign=middle;resizable=0;points=[];fontFamily=Courier New;" parent="-eDzR6JmnhonBKYW2Ush-8" vertex="1" connectable="0">
          <mxGeometry x="0.7143" y="-1" relative="1" as="geometry">
            <mxPoint x="21" y="8" as="offset" />
          </mxGeometry>
        </mxCell>
        <mxCell id="-eDzR6JmnhonBKYW2Ush-11" style="edgeStyle=orthogonalEdgeStyle;rounded=0;orthogonalLoop=1;jettySize=auto;html=1;endArrow=diamondThin;endFill=1;endSize=15;startSize=12;startArrow=openThin;startFill=0;fontFamily=Courier New;" parent="1" source="2gcLEqBq8YMOUbKn97yW-1" target="na-OlBl82aRNZoE5qiHN-1" edge="1">
          <mxGeometry relative="1" as="geometry">
            <mxPoint x="607" y="991" as="sourcePoint" />
            <mxPoint x="607" y="877" as="targetPoint" />
            <Array as="points">
              <mxPoint x="664" y="941" />
            </Array>
          </mxGeometry>
        </mxCell>
        <mxCell id="-eDzR6JmnhonBKYW2Ush-12" value="0..*" style="edgeLabel;html=1;align=center;verticalAlign=middle;resizable=0;points=[];fontFamily=Courier New;" parent="-eDzR6JmnhonBKYW2Ush-11" vertex="1" connectable="0">
          <mxGeometry x="0.8242" relative="1" as="geometry">
            <mxPoint x="134" y="47" as="offset" />
          </mxGeometry>
        </mxCell>
        <mxCell id="-eDzR6JmnhonBKYW2Ush-13" value="- msg_handlers" style="edgeLabel;html=1;align=center;verticalAlign=middle;resizable=0;points=[];fontFamily=Courier New;" parent="-eDzR6JmnhonBKYW2Ush-11" vertex="1" connectable="0">
          <mxGeometry x="0.7143" y="-1" relative="1" as="geometry">
            <mxPoint x="52" y="-9" as="offset" />
          </mxGeometry>
        </mxCell>
        <mxCell id="-eDzR6JmnhonBKYW2Ush-14" style="edgeStyle=orthogonalEdgeStyle;rounded=0;orthogonalLoop=1;jettySize=auto;html=1;endArrow=diamondThin;endFill=1;endSize=15;startSize=12;startArrow=openThin;startFill=0;fontFamily=Courier New;" parent="1" source="na-OlBl82aRNZoE5qiHN-5" target="na-OlBl82aRNZoE5qiHN-1" edge="1">
          <mxGeometry relative="1" as="geometry">
            <mxPoint x="718" y="627" as="sourcePoint" />
            <mxPoint x="648" y="780" as="targetPoint" />
            <Array as="points">
              <mxPoint x="408" y="802" />
            </Array>
          </mxGeometry>
        </mxCell>
        <mxCell id="-eDzR6JmnhonBKYW2Ush-15" value="1" style="edgeLabel;html=1;align=center;verticalAlign=middle;resizable=0;points=[];fontFamily=Courier New;" parent="-eDzR6JmnhonBKYW2Ush-14" vertex="1" connectable="0">
          <mxGeometry x="0.8242" relative="1" as="geometry">
            <mxPoint x="-83" y="-52" as="offset" />
          </mxGeometry>
        </mxCell>
        <mxCell id="-eDzR6JmnhonBKYW2Ush-16" value="- interpreter" style="edgeLabel;html=1;align=center;verticalAlign=middle;resizable=0;points=[];fontFamily=Courier New;" parent="-eDzR6JmnhonBKYW2Ush-14" vertex="1" connectable="0">
          <mxGeometry x="0.7143" y="-1" relative="1" as="geometry">
            <mxPoint x="-26" y="-13" as="offset" />
          </mxGeometry>
        </mxCell>
        <mxCell id="-eDzR6JmnhonBKYW2Ush-17" value="" style="endArrow=openThin;html=1;rounded=0;endFill=0;dashed=1;endSize=12;edgeStyle=orthogonalEdgeStyle;" parent="1" source="na-OlBl82aRNZoE5qiHN-1" target="oYuJDjsVYUp7YgeTO0I7-1" edge="1">
          <mxGeometry width="50" height="50" relative="1" as="geometry">
            <mxPoint x="328" y="910" as="sourcePoint" />
            <mxPoint x="238" y="910" as="targetPoint" />
            <Array as="points">
              <mxPoint x="205" y="828" />
            </Array>
          </mxGeometry>
        </mxCell>
        <mxCell id="-eDzR6JmnhonBKYW2Ush-18" value="" style="endArrow=none;html=1;rounded=0;endFill=0;dashed=1;endSize=12;edgeStyle=orthogonalEdgeStyle;" parent="1" source="na-OlBl82aRNZoE5qiHN-5" edge="1">
          <mxGeometry width="50" height="50" relative="1" as="geometry">
            <mxPoint x="528" y="844" as="sourcePoint" />
            <mxPoint x="311" y="828" as="targetPoint" />
            <Array as="points">
              <mxPoint x="311" y="810" />
              <mxPoint x="311" y="810" />
            </Array>
          </mxGeometry>
        </mxCell>
        <mxCell id="-eDzR6JmnhonBKYW2Ush-19" value="Модуль" style="swimlane;fontStyle=1;align=center;verticalAlign=top;childLayout=stackLayout;horizontal=1;startSize=26;horizontalStack=0;resizeParent=1;resizeParentMax=0;resizeLast=0;collapsible=1;marginBottom=0;whiteSpace=wrap;html=1;fontFamily=Courier New;" parent="1" vertex="1">
          <mxGeometry x="138" y="442" width="160" height="34" as="geometry" />
        </mxCell>
        <mxCell id="-eDzR6JmnhonBKYW2Ush-21" value="" style="line;strokeWidth=1;fillColor=none;align=left;verticalAlign=middle;spacingTop=-1;spacingLeft=3;spacingRight=3;rotatable=0;labelPosition=right;points=[];portConstraint=eastwest;strokeColor=inherit;fontFamily=Courier New;" parent="-eDzR6JmnhonBKYW2Ush-19" vertex="1">
          <mxGeometry y="26" width="160" height="8" as="geometry" />
        </mxCell>
        <mxCell id="-eDzR6JmnhonBKYW2Ush-23" value="Сообщение" style="swimlane;fontStyle=1;align=center;verticalAlign=top;childLayout=stackLayout;horizontal=1;startSize=26;horizontalStack=0;resizeParent=1;resizeParentMax=0;resizeLast=0;collapsible=1;marginBottom=0;whiteSpace=wrap;html=1;fontFamily=Courier New;" parent="1" vertex="1">
          <mxGeometry x="22" y="617" width="128" height="56" as="geometry" />
        </mxCell>
        <mxCell id="-eDzR6JmnhonBKYW2Ush-24" value="+ value : Real" style="text;strokeColor=none;fillColor=none;align=left;verticalAlign=top;spacingLeft=4;spacingRight=4;overflow=hidden;rotatable=0;points=[[0,0.5],[1,0.5]];portConstraint=eastwest;whiteSpace=wrap;html=1;fontFamily=Courier New;" parent="-eDzR6JmnhonBKYW2Ush-23" vertex="1">
          <mxGeometry y="26" width="128" height="22" as="geometry" />
        </mxCell>
        <mxCell id="-eDzR6JmnhonBKYW2Ush-25" value="" style="line;strokeWidth=1;fillColor=none;align=left;verticalAlign=middle;spacingTop=-1;spacingLeft=3;spacingRight=3;rotatable=0;labelPosition=right;points=[];portConstraint=eastwest;strokeColor=inherit;fontFamily=Courier New;" parent="-eDzR6JmnhonBKYW2Ush-23" vertex="1">
          <mxGeometry y="48" width="128" height="8" as="geometry" />
        </mxCell>
        <mxCell id="-eDzR6JmnhonBKYW2Ush-29" value="" style="endArrow=openThin;html=1;rounded=0;endFill=0;dashed=1;endSize=12;edgeStyle=orthogonalEdgeStyle;" parent="1" source="na-OlBl82aRNZoE5qiHN-5" target="-eDzR6JmnhonBKYW2Ush-23" edge="1">
          <mxGeometry width="50" height="50" relative="1" as="geometry">
            <mxPoint x="528" y="838" as="sourcePoint" />
            <mxPoint x="215" y="887" as="targetPoint" />
            <Array as="points">
              <mxPoint x="245" y="652" />
              <mxPoint x="245" y="652" />
            </Array>
          </mxGeometry>
        </mxCell>
        <mxCell id="-eDzR6JmnhonBKYW2Ush-30" value="" style="endArrow=openThin;html=1;rounded=0;endFill=0;dashed=1;endSize=12;edgeStyle=orthogonalEdgeStyle;" parent="1" source="na-OlBl82aRNZoE5qiHN-5" target="-eDzR6JmnhonBKYW2Ush-19" edge="1">
          <mxGeometry width="50" height="50" relative="1" as="geometry">
            <mxPoint x="193" y="587" as="sourcePoint" />
            <mxPoint x="160" y="658" as="targetPoint" />
            <Array as="points">
              <mxPoint x="318" y="530" />
              <mxPoint x="248" y="530" />
            </Array>
          </mxGeometry>
        </mxCell>
        <mxCell id="-eDzR6JmnhonBKYW2Ush-31" style="edgeStyle=orthogonalEdgeStyle;rounded=0;orthogonalLoop=1;jettySize=auto;html=1;endArrow=diamondThin;endFill=1;endSize=15;startSize=12;startArrow=openThin;startFill=0;fontFamily=Courier New;" parent="1" source="oYuJDjsVYUp7YgeTO0I7-1" target="-eDzR6JmnhonBKYW2Ush-23" edge="1">
          <mxGeometry relative="1" as="geometry">
            <mxPoint x="-17" y="707.9100000000001" as="sourcePoint" />
            <mxPoint x="93" y="781.9100000000001" as="targetPoint" />
            <Array as="points">
              <mxPoint x="173" y="782" />
              <mxPoint x="86" y="782" />
            </Array>
          </mxGeometry>
        </mxCell>
        <mxCell id="-eDzR6JmnhonBKYW2Ush-32" value="1" style="edgeLabel;html=1;align=center;verticalAlign=middle;resizable=0;points=[];fontFamily=Courier New;" parent="-eDzR6JmnhonBKYW2Ush-31" vertex="1" connectable="0">
          <mxGeometry x="0.8242" relative="1" as="geometry">
            <mxPoint x="95" y="153" as="offset" />
          </mxGeometry>
        </mxCell>
        <mxCell id="-eDzR6JmnhonBKYW2Ush-33" value="+ key" style="edgeLabel;html=1;align=center;verticalAlign=middle;resizable=0;points=[];fontFamily=Courier New;" parent="-eDzR6JmnhonBKYW2Ush-31" vertex="1" connectable="0">
          <mxGeometry x="0.7143" y="-1" relative="1" as="geometry">
            <mxPoint x="20" y="-16" as="offset" />
          </mxGeometry>
        </mxCell>
        <mxCell id="-eDzR6JmnhonBKYW2Ush-34" style="edgeStyle=orthogonalEdgeStyle;rounded=0;orthogonalLoop=1;jettySize=auto;html=1;endArrow=diamondThin;endFill=1;endSize=15;startSize=12;startArrow=openThin;startFill=0;fontFamily=Courier New;" parent="1" source="GCzGzrYWqf671Uo-7Ya1-75" target="-eDzR6JmnhonBKYW2Ush-19" edge="1">
          <mxGeometry relative="1" as="geometry">
            <mxPoint x="86" y="782" as="sourcePoint" />
            <mxPoint x="96" y="683" as="targetPoint" />
            <Array as="points">
              <mxPoint x="150" y="382" />
              <mxPoint x="207" y="382" />
            </Array>
          </mxGeometry>
        </mxCell>
        <mxCell id="-eDzR6JmnhonBKYW2Ush-36" value="+ file_path" style="edgeLabel;html=1;align=center;verticalAlign=middle;resizable=0;points=[];fontFamily=Courier New;" parent="-eDzR6JmnhonBKYW2Ush-34" vertex="1" connectable="0">
          <mxGeometry x="0.7143" y="-1" relative="1" as="geometry">
            <mxPoint x="-40" y="-4" as="offset" />
          </mxGeometry>
        </mxCell>
        <mxCell id="GCzGzrYWqf671Uo-7Ya1-77" value="1" style="edgeLabel;html=1;align=center;verticalAlign=middle;resizable=0;points=[];" parent="-eDzR6JmnhonBKYW2Ush-34" vertex="1" connectable="0">
          <mxGeometry x="-0.8108" y="-2" relative="1" as="geometry">
            <mxPoint x="10" y="6" as="offset" />
          </mxGeometry>
        </mxCell>
        <mxCell id="-eDzR6JmnhonBKYW2Ush-37" style="edgeStyle=orthogonalEdgeStyle;rounded=0;orthogonalLoop=1;jettySize=auto;html=1;endArrow=diamondThin;endFill=1;endSize=15;startSize=12;startArrow=openThin;startFill=0;fontFamily=Courier New;" parent="1" source="GCzGzrYWqf671Uo-7Ya1-75" target="-eDzR6JmnhonBKYW2Ush-19" edge="1">
          <mxGeometry relative="1" as="geometry">
            <mxPoint x="-6" y="523" as="sourcePoint" />
            <mxPoint x="148" y="469" as="targetPoint" />
            <Array as="points">
              <mxPoint x="26" y="318" />
              <mxPoint x="26" y="459" />
            </Array>
          </mxGeometry>
        </mxCell>
        <mxCell id="-eDzR6JmnhonBKYW2Ush-38" value="+ script" style="edgeLabel;html=1;align=center;verticalAlign=middle;resizable=0;points=[];fontFamily=Courier New;" parent="-eDzR6JmnhonBKYW2Ush-37" vertex="1" connectable="0">
          <mxGeometry x="0.7143" y="-1" relative="1" as="geometry">
            <mxPoint x="-7" y="-12" as="offset" />
          </mxGeometry>
        </mxCell>
        <mxCell id="GCzGzrYWqf671Uo-7Ya1-78" value="1" style="edgeLabel;html=1;align=center;verticalAlign=middle;resizable=0;points=[];" parent="-eDzR6JmnhonBKYW2Ush-37" vertex="1" connectable="0">
          <mxGeometry x="-0.8169" relative="1" as="geometry">
            <mxPoint x="6" y="-12" as="offset" />
          </mxGeometry>
        </mxCell>
        <mxCell id="-eDzR6JmnhonBKYW2Ush-39" value="QJsonObject" style="swimlane;fontStyle=1;align=center;verticalAlign=top;childLayout=stackLayout;horizontal=1;startSize=26;horizontalStack=0;resizeParent=1;resizeParentMax=0;resizeLast=0;collapsible=1;marginBottom=0;whiteSpace=wrap;html=1;fontFamily=Courier New;" parent="1" vertex="1">
          <mxGeometry x="897" y="1049" width="163" height="34" as="geometry" />
        </mxCell>
        <mxCell id="-eDzR6JmnhonBKYW2Ush-41" value="" style="line;strokeWidth=1;fillColor=none;align=left;verticalAlign=middle;spacingTop=-1;spacingLeft=3;spacingRight=3;rotatable=0;labelPosition=right;points=[];portConstraint=eastwest;strokeColor=inherit;fontFamily=Courier New;" parent="-eDzR6JmnhonBKYW2Ush-39" vertex="1">
          <mxGeometry y="26" width="163" height="8" as="geometry" />
        </mxCell>
        <mxCell id="-eDzR6JmnhonBKYW2Ush-42" value="" style="endArrow=openThin;html=1;rounded=0;endFill=0;dashed=1;endSize=12;edgeStyle=orthogonalEdgeStyle;" parent="1" source="2gcLEqBq8YMOUbKn97yW-1" target="-eDzR6JmnhonBKYW2Ush-39" edge="1">
          <mxGeometry width="50" height="50" relative="1" as="geometry">
            <mxPoint x="814" y="812" as="sourcePoint" />
            <mxPoint x="991" y="812" as="targetPoint" />
            <Array as="points">
              <mxPoint x="979" y="998" />
              <mxPoint x="979" y="998" />
            </Array>
          </mxGeometry>
        </mxCell>
        <mxCell id="S9jJNW5_-NqCgMtOk-S6-1" value="" style="endArrow=block;html=1;rounded=0;endFill=0;endSize=10;fontFamily=Courier New;dashed=1;" parent="1" source="na-OlBl82aRNZoE5qiHN-28" target="na-OlBl82aRNZoE5qiHN-5" edge="1">
          <mxGeometry width="50" height="50" relative="1" as="geometry">
            <mxPoint x="862" y="1791" as="sourcePoint" />
            <mxPoint x="787" y="1701" as="targetPoint" />
          </mxGeometry>
        </mxCell>
        <mxCell id="S9jJNW5_-NqCgMtOk-S6-2" value="std::condition_variable" style="swimlane;fontStyle=1;align=center;verticalAlign=top;childLayout=stackLayout;horizontal=1;startSize=26;horizontalStack=0;resizeParent=1;resizeParentMax=0;resizeLast=0;collapsible=1;marginBottom=0;whiteSpace=wrap;html=1;fontFamily=Courier New;" parent="1" vertex="1">
          <mxGeometry x="833" y="346" width="202" height="34" as="geometry" />
        </mxCell>
        <mxCell id="S9jJNW5_-NqCgMtOk-S6-4" value="" style="line;strokeWidth=1;fillColor=none;align=left;verticalAlign=middle;spacingTop=-1;spacingLeft=3;spacingRight=3;rotatable=0;labelPosition=right;points=[];portConstraint=eastwest;strokeColor=inherit;fontFamily=Courier New;" parent="S9jJNW5_-NqCgMtOk-S6-2" vertex="1">
          <mxGeometry y="26" width="202" height="8" as="geometry" />
        </mxCell>
        <mxCell id="S9jJNW5_-NqCgMtOk-S6-6" value="ScriptC_NS_Sys" style="swimlane;fontStyle=1;align=center;verticalAlign=top;childLayout=stackLayout;horizontal=1;startSize=26;horizontalStack=0;resizeParent=1;resizeParentMax=0;resizeLast=0;collapsible=1;marginBottom=0;whiteSpace=wrap;html=1;fontFamily=Courier New;" parent="1" vertex="1">
          <mxGeometry x="253" y="192" width="160" height="34" as="geometry" />
        </mxCell>
        <mxCell id="S9jJNW5_-NqCgMtOk-S6-8" value="" style="line;strokeWidth=1;fillColor=none;align=left;verticalAlign=middle;spacingTop=-1;spacingLeft=3;spacingRight=3;rotatable=0;labelPosition=right;points=[];portConstraint=eastwest;strokeColor=inherit;fontFamily=Courier New;" parent="S9jJNW5_-NqCgMtOk-S6-6" vertex="1">
          <mxGeometry y="26" width="160" height="8" as="geometry" />
        </mxCell>
        <mxCell id="S9jJNW5_-NqCgMtOk-S6-10" value="ScriptC_Interpreter" style="swimlane;fontStyle=1;align=center;verticalAlign=top;childLayout=stackLayout;horizontal=1;startSize=26;horizontalStack=0;resizeParent=1;resizeParentMax=0;resizeLast=0;collapsible=1;marginBottom=0;whiteSpace=wrap;html=1;fontFamily=Courier New;" parent="1" vertex="1">
          <mxGeometry x="459" y="147" width="160" height="34" as="geometry" />
        </mxCell>
        <mxCell id="S9jJNW5_-NqCgMtOk-S6-12" value="" style="line;strokeWidth=1;fillColor=none;align=left;verticalAlign=middle;spacingTop=-1;spacingLeft=3;spacingRight=3;rotatable=0;labelPosition=right;points=[];portConstraint=eastwest;strokeColor=inherit;fontFamily=Courier New;" parent="S9jJNW5_-NqCgMtOk-S6-10" vertex="1">
          <mxGeometry y="26" width="160" height="8" as="geometry" />
        </mxCell>
        <mxCell id="S9jJNW5_-NqCgMtOk-S6-15" value="&lt;div style=&quot;border-color: var(--border-color);&quot;&gt;&lt;span style=&quot;font-weight: normal;&quot;&gt;«интерфейс»&lt;br style=&quot;border-color: var(--border-color);&quot;&gt;&lt;/span&gt;&lt;/div&gt;ЗапросМодуля" style="swimlane;fontStyle=1;align=center;verticalAlign=top;childLayout=stackLayout;horizontal=1;startSize=39;horizontalStack=0;resizeParent=1;resizeParentMax=0;resizeLast=0;collapsible=1;marginBottom=0;whiteSpace=wrap;html=1;fontFamily=Courier New;" parent="1" vertex="1">
          <mxGeometry x="704" y="161" width="269" height="73" as="geometry" />
        </mxCell>
        <mxCell id="S9jJNW5_-NqCgMtOk-S6-17" value="" style="line;strokeWidth=1;fillColor=none;align=left;verticalAlign=middle;spacingTop=-1;spacingLeft=3;spacingRight=3;rotatable=0;labelPosition=right;points=[];portConstraint=eastwest;strokeColor=inherit;fontFamily=Courier New;" parent="S9jJNW5_-NqCgMtOk-S6-15" vertex="1">
          <mxGeometry y="39" width="269" height="8" as="geometry" />
        </mxCell>
        <mxCell id="S9jJNW5_-NqCgMtOk-S6-18" value="+ requestModule(file_path : String)" style="text;strokeColor=none;fillColor=none;align=left;verticalAlign=top;spacingLeft=4;spacingRight=4;overflow=hidden;rotatable=0;points=[[0,0.5],[1,0.5]];portConstraint=eastwest;whiteSpace=wrap;html=1;fontFamily=Courier New;" parent="S9jJNW5_-NqCgMtOk-S6-15" vertex="1">
          <mxGeometry y="47" width="269" height="26" as="geometry" />
        </mxCell>
        <mxCell id="GCzGzrYWqf671Uo-7Ya1-3" style="rounded=0;orthogonalLoop=1;jettySize=auto;html=1;endArrow=diamondThin;endFill=1;endSize=15;startSize=12;startArrow=openThin;startFill=0;fontFamily=Courier New;" parent="1" source="S9jJNW5_-NqCgMtOk-S6-6" target="na-OlBl82aRNZoE5qiHN-28" edge="1">
          <mxGeometry relative="1" as="geometry">
            <mxPoint x="488" y="296" as="sourcePoint" />
            <mxPoint x="429" y="92" as="targetPoint" />
          </mxGeometry>
        </mxCell>
        <mxCell id="GCzGzrYWqf671Uo-7Ya1-4" value="1" style="edgeLabel;html=1;align=center;verticalAlign=middle;resizable=0;points=[];fontFamily=Courier New;" parent="GCzGzrYWqf671Uo-7Ya1-3" vertex="1" connectable="0">
          <mxGeometry x="0.8242" relative="1" as="geometry">
            <mxPoint x="-86" y="-59" as="offset" />
          </mxGeometry>
        </mxCell>
        <mxCell id="GCzGzrYWqf671Uo-7Ya1-5" value="- sys" style="edgeLabel;html=1;align=center;verticalAlign=middle;resizable=0;points=[];fontFamily=Courier New;" parent="GCzGzrYWqf671Uo-7Ya1-3" vertex="1" connectable="0">
          <mxGeometry x="0.7143" y="-1" relative="1" as="geometry">
            <mxPoint x="22" y="-11" as="offset" />
          </mxGeometry>
        </mxCell>
        <mxCell id="GCzGzrYWqf671Uo-7Ya1-6" style="rounded=0;orthogonalLoop=1;jettySize=auto;html=1;endArrow=diamondThin;endFill=1;endSize=15;startSize=12;startArrow=openThin;startFill=0;fontFamily=Courier New;" parent="1" source="S9jJNW5_-NqCgMtOk-S6-10" target="na-OlBl82aRNZoE5qiHN-28" edge="1">
          <mxGeometry relative="1" as="geometry">
            <mxPoint x="362" y="236" as="sourcePoint" />
            <mxPoint x="465" y="326" as="targetPoint" />
          </mxGeometry>
        </mxCell>
        <mxCell id="GCzGzrYWqf671Uo-7Ya1-7" value="1" style="edgeLabel;html=1;align=center;verticalAlign=middle;resizable=0;points=[];fontFamily=Courier New;" parent="GCzGzrYWqf671Uo-7Ya1-6" vertex="1" connectable="0">
          <mxGeometry x="0.8242" relative="1" as="geometry">
            <mxPoint x="-11" y="-99" as="offset" />
          </mxGeometry>
        </mxCell>
        <mxCell id="GCzGzrYWqf671Uo-7Ya1-8" value="- machine" style="edgeLabel;html=1;align=center;verticalAlign=middle;resizable=0;points=[];fontFamily=Courier New;" parent="GCzGzrYWqf671Uo-7Ya1-6" vertex="1" connectable="0">
          <mxGeometry x="0.7143" y="-1" relative="1" as="geometry">
            <mxPoint x="39" y="-5" as="offset" />
          </mxGeometry>
        </mxCell>
        <mxCell id="GCzGzrYWqf671Uo-7Ya1-9" style="rounded=0;orthogonalLoop=1;jettySize=auto;html=1;endArrow=diamondThin;endFill=1;endSize=15;startSize=12;startArrow=openThin;startFill=0;fontFamily=Courier New;" parent="1" source="S9jJNW5_-NqCgMtOk-S6-15" target="na-OlBl82aRNZoE5qiHN-28" edge="1">
          <mxGeometry relative="1" as="geometry">
            <mxPoint x="549" y="191" as="sourcePoint" />
            <mxPoint x="549" y="326" as="targetPoint" />
          </mxGeometry>
        </mxCell>
        <mxCell id="GCzGzrYWqf671Uo-7Ya1-10" value="1" style="edgeLabel;html=1;align=center;verticalAlign=middle;resizable=0;points=[];fontFamily=Courier New;" parent="GCzGzrYWqf671Uo-7Ya1-9" vertex="1" connectable="0">
          <mxGeometry x="0.8242" relative="1" as="geometry">
            <mxPoint x="79" y="-64" as="offset" />
          </mxGeometry>
        </mxCell>
        <mxCell id="GCzGzrYWqf671Uo-7Ya1-11" value="- request_module_callback" style="edgeLabel;html=1;align=center;verticalAlign=middle;resizable=0;points=[];fontFamily=Courier New;" parent="GCzGzrYWqf671Uo-7Ya1-9" vertex="1" connectable="0">
          <mxGeometry x="0.7143" y="-1" relative="1" as="geometry">
            <mxPoint x="93" y="2" as="offset" />
          </mxGeometry>
        </mxCell>
        <mxCell id="GCzGzrYWqf671Uo-7Ya1-12" style="rounded=0;orthogonalLoop=1;jettySize=auto;html=1;endArrow=diamondThin;endFill=1;endSize=15;startSize=12;startArrow=openThin;startFill=0;fontFamily=Courier New;" parent="1" source="S9jJNW5_-NqCgMtOk-S6-2" target="na-OlBl82aRNZoE5qiHN-28" edge="1">
          <mxGeometry relative="1" as="geometry">
            <mxPoint x="791" y="244" as="sourcePoint" />
            <mxPoint x="693" y="374" as="targetPoint" />
          </mxGeometry>
        </mxCell>
        <mxCell id="GCzGzrYWqf671Uo-7Ya1-13" value="1" style="edgeLabel;html=1;align=center;verticalAlign=middle;resizable=0;points=[];fontFamily=Courier New;" parent="GCzGzrYWqf671Uo-7Ya1-12" vertex="1" connectable="0">
          <mxGeometry x="0.8242" relative="1" as="geometry">
            <mxPoint x="107" y="11" as="offset" />
          </mxGeometry>
        </mxCell>
        <mxCell id="GCzGzrYWqf671Uo-7Ya1-14" value="- cv" style="edgeLabel;html=1;align=center;verticalAlign=middle;resizable=0;points=[];fontFamily=Courier New;" parent="GCzGzrYWqf671Uo-7Ya1-12" vertex="1" connectable="0">
          <mxGeometry x="0.7143" y="-1" relative="1" as="geometry">
            <mxPoint x="12" y="-9" as="offset" />
          </mxGeometry>
        </mxCell>
        <mxCell id="GCzGzrYWqf671Uo-7Ya1-15" style="rounded=0;orthogonalLoop=1;jettySize=auto;html=1;endArrow=diamondThin;endFill=1;endSize=15;startSize=12;startArrow=openThin;startFill=0;fontFamily=Courier New;" parent="1" source="-eDzR6JmnhonBKYW2Ush-19" target="na-OlBl82aRNZoE5qiHN-28" edge="1">
          <mxGeometry relative="1" as="geometry">
            <mxPoint x="362" y="236" as="sourcePoint" />
            <mxPoint x="465" y="326" as="targetPoint" />
          </mxGeometry>
        </mxCell>
        <mxCell id="GCzGzrYWqf671Uo-7Ya1-16" value="1" style="edgeLabel;html=1;align=center;verticalAlign=middle;resizable=0;points=[];fontFamily=Courier New;" parent="GCzGzrYWqf671Uo-7Ya1-15" vertex="1" connectable="0">
          <mxGeometry x="0.8242" relative="1" as="geometry">
            <mxPoint x="-58" y="24" as="offset" />
          </mxGeometry>
        </mxCell>
        <mxCell id="GCzGzrYWqf671Uo-7Ya1-17" value="- stored_module" style="edgeLabel;html=1;align=center;verticalAlign=middle;resizable=0;points=[];fontFamily=Courier New;" parent="GCzGzrYWqf671Uo-7Ya1-15" vertex="1" connectable="0">
          <mxGeometry x="0.7143" y="-1" relative="1" as="geometry">
            <mxPoint x="-60" y="-9" as="offset" />
          </mxGeometry>
        </mxCell>
        <mxCell id="GCzGzrYWqf671Uo-7Ya1-18" style="rounded=0;orthogonalLoop=1;jettySize=auto;html=1;endArrow=diamondThin;endFill=1;endSize=15;startSize=12;startArrow=openThin;startFill=0;fontFamily=Courier New;edgeStyle=orthogonalEdgeStyle;" parent="1" source="GCzGzrYWqf671Uo-7Ya1-75" target="na-OlBl82aRNZoE5qiHN-28" edge="1">
          <mxGeometry relative="1" as="geometry">
            <mxPoint x="129" y="359" as="sourcePoint" />
            <mxPoint x="394" y="433" as="targetPoint" />
            <Array as="points">
              <mxPoint x="252" y="318" />
              <mxPoint x="252" y="389" />
            </Array>
          </mxGeometry>
        </mxCell>
        <mxCell id="GCzGzrYWqf671Uo-7Ya1-19" value="1" style="edgeLabel;html=1;align=center;verticalAlign=middle;resizable=0;points=[];fontFamily=Courier New;" parent="GCzGzrYWqf671Uo-7Ya1-18" vertex="1" connectable="0">
          <mxGeometry x="0.8242" relative="1" as="geometry">
            <mxPoint x="-158" y="-83" as="offset" />
          </mxGeometry>
        </mxCell>
        <mxCell id="GCzGzrYWqf671Uo-7Ya1-20" value="- stored_error" style="edgeLabel;html=1;align=center;verticalAlign=middle;resizable=0;points=[];fontFamily=Courier New;" parent="GCzGzrYWqf671Uo-7Ya1-18" vertex="1" connectable="0">
          <mxGeometry x="0.7143" y="-1" relative="1" as="geometry">
            <mxPoint x="-28" y="-12" as="offset" />
          </mxGeometry>
        </mxCell>
        <mxCell id="GCzGzrYWqf671Uo-7Ya1-24" value="ТипизированныйОбработчикСообщений" style="swimlane;fontStyle=1;align=center;verticalAlign=top;childLayout=stackLayout;horizontal=1;startSize=26;horizontalStack=0;resizeParent=1;resizeParentMax=0;resizeLast=0;collapsible=1;marginBottom=0;whiteSpace=wrap;html=1;fontFamily=Courier New;" parent="1" vertex="1">
          <mxGeometry x="1226" y="945" width="276" height="60" as="geometry" />
        </mxCell>
        <mxCell id="GCzGzrYWqf671Uo-7Ya1-26" value="" style="line;strokeWidth=1;fillColor=none;align=left;verticalAlign=middle;spacingTop=-1;spacingLeft=3;spacingRight=3;rotatable=0;labelPosition=right;points=[];portConstraint=eastwest;strokeColor=inherit;fontFamily=Courier New;" parent="GCzGzrYWqf671Uo-7Ya1-24" vertex="1">
          <mxGeometry y="26" width="276" height="8" as="geometry" />
        </mxCell>
        <mxCell id="GCzGzrYWqf671Uo-7Ya1-27" value="+ handle(msg : QJsonObject): Integer" style="text;strokeColor=none;fillColor=none;align=left;verticalAlign=top;spacingLeft=4;spacingRight=4;overflow=hidden;rotatable=0;points=[[0,0.5],[1,0.5]];portConstraint=eastwest;whiteSpace=wrap;html=1;fontFamily=Courier New;" parent="GCzGzrYWqf671Uo-7Ya1-24" vertex="1">
          <mxGeometry y="34" width="276" height="26" as="geometry" />
        </mxCell>
        <mxCell id="GCzGzrYWqf671Uo-7Ya1-28" value="&lt;span style=&quot;font-weight: normal;&quot;&gt;«примитив»&lt;/span&gt;&lt;br&gt;String" style="swimlane;fontStyle=1;align=center;verticalAlign=top;childLayout=stackLayout;horizontal=1;startSize=38;horizontalStack=0;resizeParent=1;resizeParentMax=0;resizeLast=0;collapsible=1;marginBottom=0;whiteSpace=wrap;html=1;fontFamily=Courier New;" parent="1" vertex="1">
          <mxGeometry x="1255" y="820" width="120" height="46" as="geometry" />
        </mxCell>
        <mxCell id="GCzGzrYWqf671Uo-7Ya1-29" value="" style="line;strokeWidth=1;fillColor=none;align=left;verticalAlign=middle;spacingTop=-1;spacingLeft=3;spacingRight=3;rotatable=0;labelPosition=right;points=[];portConstraint=eastwest;strokeColor=inherit;fontFamily=Courier New;" parent="GCzGzrYWqf671Uo-7Ya1-28" vertex="1">
          <mxGeometry y="38" width="120" height="8" as="geometry" />
        </mxCell>
        <mxCell id="GCzGzrYWqf671Uo-7Ya1-30" style="edgeStyle=orthogonalEdgeStyle;rounded=0;orthogonalLoop=1;jettySize=auto;html=1;endArrow=diamondThin;endFill=1;endSize=15;startSize=12;startArrow=openThin;startFill=0;fontFamily=Courier New;" parent="1" source="GCzGzrYWqf671Uo-7Ya1-28" target="GCzGzrYWqf671Uo-7Ya1-24" edge="1">
          <mxGeometry relative="1" as="geometry">
            <mxPoint x="1463" y="828" as="sourcePoint" />
            <mxPoint x="1312" y="915" as="targetPoint" />
            <Array as="points">
              <mxPoint x="1312" y="883" />
              <mxPoint x="1312" y="883" />
            </Array>
          </mxGeometry>
        </mxCell>
        <mxCell id="GCzGzrYWqf671Uo-7Ya1-31" value="1" style="edgeLabel;html=1;align=center;verticalAlign=middle;resizable=0;points=[];fontFamily=Courier New;" parent="GCzGzrYWqf671Uo-7Ya1-30" vertex="1" connectable="0">
          <mxGeometry x="0.8242" relative="1" as="geometry">
            <mxPoint x="12" y="-47" as="offset" />
          </mxGeometry>
        </mxCell>
        <mxCell id="GCzGzrYWqf671Uo-7Ya1-32" value="# type" style="edgeLabel;html=1;align=center;verticalAlign=middle;resizable=0;points=[];fontFamily=Courier New;" parent="GCzGzrYWqf671Uo-7Ya1-30" vertex="1" connectable="0">
          <mxGeometry x="0.7143" y="-1" relative="1" as="geometry">
            <mxPoint x="30" y="-13" as="offset" />
          </mxGeometry>
        </mxCell>
        <mxCell id="GCzGzrYWqf671Uo-7Ya1-33" value="" style="endArrow=block;html=1;rounded=0;endFill=0;endSize=10;fontFamily=Courier New;dashed=1;" parent="1" source="GCzGzrYWqf671Uo-7Ya1-24" target="2gcLEqBq8YMOUbKn97yW-1" edge="1">
          <mxGeometry width="50" height="50" relative="1" as="geometry">
            <mxPoint x="648" y="1181" as="sourcePoint" />
            <mxPoint x="648" y="1101" as="targetPoint" />
          </mxGeometry>
        </mxCell>
        <mxCell id="GCzGzrYWqf671Uo-7Ya1-34" value="ОбработчикСообщенийСтарта" style="swimlane;fontStyle=1;align=center;verticalAlign=top;childLayout=stackLayout;horizontal=1;startSize=26;horizontalStack=0;resizeParent=1;resizeParentMax=0;resizeLast=0;collapsible=1;marginBottom=0;whiteSpace=wrap;html=1;fontFamily=Courier New;" parent="1" vertex="1">
          <mxGeometry x="1111" y="1098" width="276" height="60" as="geometry" />
        </mxCell>
        <mxCell id="GCzGzrYWqf671Uo-7Ya1-35" value="" style="line;strokeWidth=1;fillColor=none;align=left;verticalAlign=middle;spacingTop=-1;spacingLeft=3;spacingRight=3;rotatable=0;labelPosition=right;points=[];portConstraint=eastwest;strokeColor=inherit;fontFamily=Courier New;" parent="GCzGzrYWqf671Uo-7Ya1-34" vertex="1">
          <mxGeometry y="26" width="276" height="8" as="geometry" />
        </mxCell>
        <mxCell id="GCzGzrYWqf671Uo-7Ya1-36" value="+ handle(msg : QJsonObject): Integer" style="text;strokeColor=none;fillColor=none;align=left;verticalAlign=top;spacingLeft=4;spacingRight=4;overflow=hidden;rotatable=0;points=[[0,0.5],[1,0.5]];portConstraint=eastwest;whiteSpace=wrap;html=1;fontFamily=Courier New;" parent="GCzGzrYWqf671Uo-7Ya1-34" vertex="1">
          <mxGeometry y="34" width="276" height="26" as="geometry" />
        </mxCell>
        <mxCell id="GCzGzrYWqf671Uo-7Ya1-37" value="ОбработчикСообщенийОбратногоВызова" style="swimlane;fontStyle=1;align=center;verticalAlign=top;childLayout=stackLayout;horizontal=1;startSize=26;horizontalStack=0;resizeParent=1;resizeParentMax=0;resizeLast=0;collapsible=1;marginBottom=0;whiteSpace=wrap;html=1;fontFamily=Courier New;" parent="1" vertex="1">
          <mxGeometry x="1437" y="1068" width="276" height="60" as="geometry" />
        </mxCell>
        <mxCell id="GCzGzrYWqf671Uo-7Ya1-38" value="" style="line;strokeWidth=1;fillColor=none;align=left;verticalAlign=middle;spacingTop=-1;spacingLeft=3;spacingRight=3;rotatable=0;labelPosition=right;points=[];portConstraint=eastwest;strokeColor=inherit;fontFamily=Courier New;" parent="GCzGzrYWqf671Uo-7Ya1-37" vertex="1">
          <mxGeometry y="26" width="276" height="8" as="geometry" />
        </mxCell>
        <mxCell id="GCzGzrYWqf671Uo-7Ya1-39" value="+ handle(msg : QJsonObject): Integer" style="text;strokeColor=none;fillColor=none;align=left;verticalAlign=top;spacingLeft=4;spacingRight=4;overflow=hidden;rotatable=0;points=[[0,0.5],[1,0.5]];portConstraint=eastwest;whiteSpace=wrap;html=1;fontFamily=Courier New;" parent="GCzGzrYWqf671Uo-7Ya1-37" vertex="1">
          <mxGeometry y="34" width="276" height="26" as="geometry" />
        </mxCell>
        <mxCell id="GCzGzrYWqf671Uo-7Ya1-40" value="ОбработчикСообщенийМодуля" style="swimlane;fontStyle=1;align=center;verticalAlign=top;childLayout=stackLayout;horizontal=1;startSize=26;horizontalStack=0;resizeParent=1;resizeParentMax=0;resizeLast=0;collapsible=1;marginBottom=0;whiteSpace=wrap;html=1;fontFamily=Courier New;" parent="1" vertex="1">
          <mxGeometry x="1616" y="961" width="276" height="60" as="geometry" />
        </mxCell>
        <mxCell id="GCzGzrYWqf671Uo-7Ya1-41" value="" style="line;strokeWidth=1;fillColor=none;align=left;verticalAlign=middle;spacingTop=-1;spacingLeft=3;spacingRight=3;rotatable=0;labelPosition=right;points=[];portConstraint=eastwest;strokeColor=inherit;fontFamily=Courier New;" parent="GCzGzrYWqf671Uo-7Ya1-40" vertex="1">
          <mxGeometry y="26" width="276" height="8" as="geometry" />
        </mxCell>
        <mxCell id="GCzGzrYWqf671Uo-7Ya1-42" value="+ handle(msg : QJsonObject): Integer" style="text;strokeColor=none;fillColor=none;align=left;verticalAlign=top;spacingLeft=4;spacingRight=4;overflow=hidden;rotatable=0;points=[[0,0.5],[1,0.5]];portConstraint=eastwest;whiteSpace=wrap;html=1;fontFamily=Courier New;" parent="GCzGzrYWqf671Uo-7Ya1-40" vertex="1">
          <mxGeometry y="34" width="276" height="26" as="geometry" />
        </mxCell>
        <mxCell id="GCzGzrYWqf671Uo-7Ya1-43" value="&lt;div style=&quot;border-color: var(--border-color);&quot;&gt;&lt;span style=&quot;font-weight: normal;&quot;&gt;«интерфейс»&lt;/span&gt;&lt;br style=&quot;border-color: var(--border-color);&quot;&gt;&lt;/div&gt;ОбратныйВызовОбработчикаСообщений" style="swimlane;fontStyle=1;align=center;verticalAlign=top;childLayout=stackLayout;horizontal=1;startSize=41;horizontalStack=0;resizeParent=1;resizeParentMax=0;resizeLast=0;collapsible=1;marginBottom=0;whiteSpace=wrap;html=1;fontFamily=Courier New;" parent="1" vertex="1">
          <mxGeometry x="1498" y="1188" width="276" height="75" as="geometry" />
        </mxCell>
        <mxCell id="GCzGzrYWqf671Uo-7Ya1-44" value="" style="line;strokeWidth=1;fillColor=none;align=left;verticalAlign=middle;spacingTop=-1;spacingLeft=3;spacingRight=3;rotatable=0;labelPosition=right;points=[];portConstraint=eastwest;strokeColor=inherit;fontFamily=Courier New;" parent="GCzGzrYWqf671Uo-7Ya1-43" vertex="1">
          <mxGeometry y="41" width="276" height="8" as="geometry" />
        </mxCell>
        <mxCell id="GCzGzrYWqf671Uo-7Ya1-45" value="+ call(msg : QJsonObject): Integer" style="text;strokeColor=none;fillColor=none;align=left;verticalAlign=top;spacingLeft=4;spacingRight=4;overflow=hidden;rotatable=0;points=[[0,0.5],[1,0.5]];portConstraint=eastwest;whiteSpace=wrap;html=1;fontFamily=Courier New;" parent="GCzGzrYWqf671Uo-7Ya1-43" vertex="1">
          <mxGeometry y="49" width="276" height="26" as="geometry" />
        </mxCell>
        <mxCell id="GCzGzrYWqf671Uo-7Ya1-46" style="edgeStyle=orthogonalEdgeStyle;rounded=0;orthogonalLoop=1;jettySize=auto;html=1;endArrow=diamondThin;endFill=1;endSize=15;startSize=12;startArrow=openThin;startFill=0;fontFamily=Courier New;" parent="1" source="GCzGzrYWqf671Uo-7Ya1-43" target="GCzGzrYWqf671Uo-7Ya1-37" edge="1">
          <mxGeometry relative="1" as="geometry">
            <mxPoint x="1322" y="876" as="sourcePoint" />
            <mxPoint x="1322" y="949" as="targetPoint" />
            <Array as="points">
              <mxPoint x="1620" y="1174" />
              <mxPoint x="1620" y="1174" />
            </Array>
          </mxGeometry>
        </mxCell>
        <mxCell id="GCzGzrYWqf671Uo-7Ya1-47" value="1" style="edgeLabel;html=1;align=center;verticalAlign=middle;resizable=0;points=[];fontFamily=Courier New;" parent="GCzGzrYWqf671Uo-7Ya1-46" vertex="1" connectable="0">
          <mxGeometry x="0.8242" relative="1" as="geometry">
            <mxPoint x="12" y="34" as="offset" />
          </mxGeometry>
        </mxCell>
        <mxCell id="GCzGzrYWqf671Uo-7Ya1-48" value="- callback" style="edgeLabel;html=1;align=center;verticalAlign=middle;resizable=0;points=[];fontFamily=Courier New;" parent="GCzGzrYWqf671Uo-7Ya1-46" vertex="1" connectable="0">
          <mxGeometry x="0.7143" y="-1" relative="1" as="geometry">
            <mxPoint x="40" y="14" as="offset" />
          </mxGeometry>
        </mxCell>
        <mxCell id="GCzGzrYWqf671Uo-7Ya1-49" value="" style="endArrow=block;html=1;rounded=0;endFill=0;endSize=10;fontFamily=Courier New;" parent="1" source="GCzGzrYWqf671Uo-7Ya1-37" target="GCzGzrYWqf671Uo-7Ya1-24" edge="1">
          <mxGeometry width="50" height="50" relative="1" as="geometry">
            <mxPoint x="1185" y="967" as="sourcePoint" />
            <mxPoint x="1110" y="960" as="targetPoint" />
          </mxGeometry>
        </mxCell>
        <mxCell id="GCzGzrYWqf671Uo-7Ya1-50" value="" style="endArrow=block;html=1;rounded=0;endFill=0;endSize=10;fontFamily=Courier New;" parent="1" source="GCzGzrYWqf671Uo-7Ya1-34" target="GCzGzrYWqf671Uo-7Ya1-24" edge="1">
          <mxGeometry width="50" height="50" relative="1" as="geometry">
            <mxPoint x="1524" y="1078" as="sourcePoint" />
            <mxPoint x="1384" y="1009" as="targetPoint" />
          </mxGeometry>
        </mxCell>
        <mxCell id="GCzGzrYWqf671Uo-7Ya1-51" value="" style="endArrow=block;html=1;rounded=0;endFill=0;endSize=10;fontFamily=Courier New;" parent="1" source="GCzGzrYWqf671Uo-7Ya1-40" target="GCzGzrYWqf671Uo-7Ya1-24" edge="1">
          <mxGeometry width="50" height="50" relative="1" as="geometry">
            <mxPoint x="1534" y="1088" as="sourcePoint" />
            <mxPoint x="1394" y="1019" as="targetPoint" />
          </mxGeometry>
        </mxCell>
        <mxCell id="GCzGzrYWqf671Uo-7Ya1-52" value="&lt;div style=&quot;border-color: var(--border-color);&quot;&gt;&lt;span style=&quot;font-weight: normal;&quot;&gt;«интерфейс»&lt;br style=&quot;border-color: var(--border-color);&quot;&gt;&lt;/span&gt;&lt;/div&gt;ИндикаторЗапущенногоИнтерпретатора" style="swimlane;fontStyle=1;align=center;verticalAlign=top;childLayout=stackLayout;horizontal=1;startSize=39;horizontalStack=0;resizeParent=1;resizeParentMax=0;resizeLast=0;collapsible=1;marginBottom=0;whiteSpace=wrap;html=1;fontFamily=Courier New;" parent="1" vertex="1">
          <mxGeometry x="1531" y="1293" width="276" height="73" as="geometry" />
        </mxCell>
        <mxCell id="GCzGzrYWqf671Uo-7Ya1-53" value="" style="line;strokeWidth=1;fillColor=none;align=left;verticalAlign=middle;spacingTop=-1;spacingLeft=3;spacingRight=3;rotatable=0;labelPosition=right;points=[];portConstraint=eastwest;strokeColor=inherit;fontFamily=Courier New;" parent="GCzGzrYWqf671Uo-7Ya1-52" vertex="1">
          <mxGeometry y="39" width="276" height="8" as="geometry" />
        </mxCell>
        <mxCell id="GCzGzrYWqf671Uo-7Ya1-54" value="+ isInterpreterRunning(): Boolean" style="text;strokeColor=none;fillColor=none;align=left;verticalAlign=top;spacingLeft=4;spacingRight=4;overflow=hidden;rotatable=0;points=[[0,0.5],[1,0.5]];portConstraint=eastwest;whiteSpace=wrap;html=1;fontFamily=Courier New;" parent="GCzGzrYWqf671Uo-7Ya1-52" vertex="1">
          <mxGeometry y="47" width="276" height="26" as="geometry" />
        </mxCell>
        <mxCell id="GCzGzrYWqf671Uo-7Ya1-55" style="edgeStyle=orthogonalEdgeStyle;rounded=0;orthogonalLoop=1;jettySize=auto;html=1;endArrow=diamondThin;endFill=1;endSize=15;startSize=12;startArrow=openThin;startFill=0;fontFamily=Courier New;" parent="1" source="GCzGzrYWqf671Uo-7Ya1-52" target="GCzGzrYWqf671Uo-7Ya1-34" edge="1">
          <mxGeometry relative="1" as="geometry">
            <mxPoint x="1630" y="1198" as="sourcePoint" />
            <mxPoint x="1630" y="1138" as="targetPoint" />
            <Array as="points">
              <mxPoint x="1316" y="1332" />
            </Array>
          </mxGeometry>
        </mxCell>
        <mxCell id="GCzGzrYWqf671Uo-7Ya1-56" value="1" style="edgeLabel;html=1;align=center;verticalAlign=middle;resizable=0;points=[];fontFamily=Courier New;" parent="GCzGzrYWqf671Uo-7Ya1-55" vertex="1" connectable="0">
          <mxGeometry x="0.8242" relative="1" as="geometry">
            <mxPoint x="196" y="127" as="offset" />
          </mxGeometry>
        </mxCell>
        <mxCell id="GCzGzrYWqf671Uo-7Ya1-57" value="- is_running_callback" style="edgeLabel;html=1;align=center;verticalAlign=middle;resizable=0;points=[];fontFamily=Courier New;" parent="GCzGzrYWqf671Uo-7Ya1-55" vertex="1" connectable="0">
          <mxGeometry x="0.7143" y="-1" relative="1" as="geometry">
            <mxPoint x="72" y="-30" as="offset" />
          </mxGeometry>
        </mxCell>
        <mxCell id="GCzGzrYWqf671Uo-7Ya1-58" value="&lt;div style=&quot;border-color: var(--border-color);&quot;&gt;&lt;span style=&quot;font-weight: normal;&quot;&gt;«интерфейс»&lt;/span&gt;&lt;br style=&quot;border-color: var(--border-color);&quot;&gt;&lt;/div&gt;СтартерИнтерпретатора" style="swimlane;fontStyle=1;align=center;verticalAlign=top;childLayout=stackLayout;horizontal=1;startSize=42;horizontalStack=0;resizeParent=1;resizeParentMax=0;resizeLast=0;collapsible=1;marginBottom=0;whiteSpace=wrap;html=1;fontFamily=Courier New;" parent="1" vertex="1">
          <mxGeometry x="1048" y="1370" width="300" height="88" as="geometry" />
        </mxCell>
        <mxCell id="GCzGzrYWqf671Uo-7Ya1-59" value="" style="line;strokeWidth=1;fillColor=none;align=left;verticalAlign=middle;spacingTop=-1;spacingLeft=3;spacingRight=3;rotatable=0;labelPosition=right;points=[];portConstraint=eastwest;strokeColor=inherit;fontFamily=Courier New;" parent="GCzGzrYWqf671Uo-7Ya1-58" vertex="1">
          <mxGeometry y="42" width="300" height="8" as="geometry" />
        </mxCell>
        <mxCell id="GCzGzrYWqf671Uo-7Ya1-60" value="+ startInterpreter( file_path : String&lt;br&gt;&amp;nbsp; &amp;nbsp; &amp;nbsp; &amp;nbsp; &amp;nbsp; &amp;nbsp; &amp;nbsp; &amp;nbsp; &amp;nbsp; , script&amp;nbsp; &amp;nbsp; : String )" style="text;strokeColor=none;fillColor=none;align=left;verticalAlign=top;spacingLeft=4;spacingRight=4;overflow=hidden;rotatable=0;points=[[0,0.5],[1,0.5]];portConstraint=eastwest;whiteSpace=wrap;html=1;fontFamily=Courier New;" parent="GCzGzrYWqf671Uo-7Ya1-58" vertex="1">
          <mxGeometry y="50" width="300" height="38" as="geometry" />
        </mxCell>
        <mxCell id="GCzGzrYWqf671Uo-7Ya1-61" value="std::mutex" style="swimlane;fontStyle=1;align=center;verticalAlign=top;childLayout=stackLayout;horizontal=1;startSize=26;horizontalStack=0;resizeParent=1;resizeParentMax=0;resizeLast=0;collapsible=1;marginBottom=0;whiteSpace=wrap;html=1;fontFamily=Courier New;" parent="1" vertex="1">
          <mxGeometry x="842" y="442" width="106" height="34" as="geometry" />
        </mxCell>
        <mxCell id="GCzGzrYWqf671Uo-7Ya1-62" value="" style="line;strokeWidth=1;fillColor=none;align=left;verticalAlign=middle;spacingTop=-1;spacingLeft=3;spacingRight=3;rotatable=0;labelPosition=right;points=[];portConstraint=eastwest;strokeColor=inherit;fontFamily=Courier New;" parent="GCzGzrYWqf671Uo-7Ya1-61" vertex="1">
          <mxGeometry y="26" width="106" height="8" as="geometry" />
        </mxCell>
        <mxCell id="GCzGzrYWqf671Uo-7Ya1-63" style="rounded=0;orthogonalLoop=1;jettySize=auto;html=1;endArrow=diamondThin;endFill=1;endSize=15;startSize=12;startArrow=openThin;startFill=0;fontFamily=Courier New;" parent="1" source="GCzGzrYWqf671Uo-7Ya1-61" target="na-OlBl82aRNZoE5qiHN-28" edge="1">
          <mxGeometry relative="1" as="geometry">
            <mxPoint x="843" y="380" as="sourcePoint" />
            <mxPoint x="704" y="389" as="targetPoint" />
          </mxGeometry>
        </mxCell>
        <mxCell id="GCzGzrYWqf671Uo-7Ya1-64" value="1" style="edgeLabel;html=1;align=center;verticalAlign=middle;resizable=0;points=[];fontFamily=Courier New;" parent="GCzGzrYWqf671Uo-7Ya1-63" vertex="1" connectable="0">
          <mxGeometry x="0.8242" relative="1" as="geometry">
            <mxPoint x="113" y="12" as="offset" />
          </mxGeometry>
        </mxCell>
        <mxCell id="GCzGzrYWqf671Uo-7Ya1-65" value="- mutex" style="edgeLabel;html=1;align=center;verticalAlign=middle;resizable=0;points=[];fontFamily=Courier New;" parent="GCzGzrYWqf671Uo-7Ya1-63" vertex="1" connectable="0">
          <mxGeometry x="0.7143" y="-1" relative="1" as="geometry">
            <mxPoint x="24" y="-11" as="offset" />
          </mxGeometry>
        </mxCell>
        <mxCell id="GCzGzrYWqf671Uo-7Ya1-66" style="edgeStyle=orthogonalEdgeStyle;rounded=0;orthogonalLoop=1;jettySize=auto;html=1;endArrow=diamondThin;endFill=1;endSize=15;startSize=12;startArrow=openThin;startFill=0;fontFamily=Courier New;" parent="1" source="GCzGzrYWqf671Uo-7Ya1-58" target="GCzGzrYWqf671Uo-7Ya1-34" edge="1">
          <mxGeometry relative="1" as="geometry">
            <mxPoint x="1175" y="1258" as="sourcePoint" />
            <mxPoint x="1175" y="1168" as="targetPoint" />
            <Array as="points">
              <mxPoint x="1193" y="1302" />
              <mxPoint x="1193" y="1302" />
            </Array>
          </mxGeometry>
        </mxCell>
        <mxCell id="GCzGzrYWqf671Uo-7Ya1-67" value="1" style="edgeLabel;html=1;align=center;verticalAlign=middle;resizable=0;points=[];fontFamily=Courier New;" parent="GCzGzrYWqf671Uo-7Ya1-66" vertex="1" connectable="0">
          <mxGeometry x="0.8242" relative="1" as="geometry">
            <mxPoint x="9" y="169" as="offset" />
          </mxGeometry>
        </mxCell>
        <mxCell id="GCzGzrYWqf671Uo-7Ya1-68" value="- start_callback" style="edgeLabel;html=1;align=center;verticalAlign=middle;resizable=0;points=[];fontFamily=Courier New;" parent="GCzGzrYWqf671Uo-7Ya1-66" vertex="1" connectable="0">
          <mxGeometry x="0.7143" y="-1" relative="1" as="geometry">
            <mxPoint x="58" y="-5" as="offset" />
          </mxGeometry>
        </mxCell>
        <mxCell id="GCzGzrYWqf671Uo-7Ya1-69" value="&lt;span style=&quot;font-weight: normal;&quot;&gt;«примитив»&lt;/span&gt;&lt;br&gt;String" style="swimlane;fontStyle=1;align=center;verticalAlign=top;childLayout=stackLayout;horizontal=1;startSize=38;horizontalStack=0;resizeParent=1;resizeParentMax=0;resizeLast=0;collapsible=1;marginBottom=0;whiteSpace=wrap;html=1;fontFamily=Courier New;" parent="1" vertex="1">
          <mxGeometry x="1966" y="1391" width="120" height="46" as="geometry" />
        </mxCell>
        <mxCell id="GCzGzrYWqf671Uo-7Ya1-70" value="" style="line;strokeWidth=1;fillColor=none;align=left;verticalAlign=middle;spacingTop=-1;spacingLeft=3;spacingRight=3;rotatable=0;labelPosition=right;points=[];portConstraint=eastwest;strokeColor=inherit;fontFamily=Courier New;" parent="GCzGzrYWqf671Uo-7Ya1-69" vertex="1">
          <mxGeometry y="38" width="120" height="8" as="geometry" />
        </mxCell>
        <mxCell id="GCzGzrYWqf671Uo-7Ya1-71" value="" style="endArrow=openThin;html=1;rounded=0;endFill=0;dashed=1;endSize=12;edgeStyle=orthogonalEdgeStyle;" parent="1" source="GCzGzrYWqf671Uo-7Ya1-58" target="GCzGzrYWqf671Uo-7Ya1-69" edge="1">
          <mxGeometry width="50" height="50" relative="1" as="geometry">
            <mxPoint x="989" y="985" as="sourcePoint" />
            <mxPoint x="989" y="1059" as="targetPoint" />
            <Array as="points" />
          </mxGeometry>
        </mxCell>
        <mxCell id="GCzGzrYWqf671Uo-7Ya1-72" value="&lt;span style=&quot;font-weight: normal;&quot;&gt;«примитив»&lt;/span&gt;&lt;br&gt;String" style="swimlane;fontStyle=1;align=center;verticalAlign=top;childLayout=stackLayout;horizontal=1;startSize=38;horizontalStack=0;resizeParent=1;resizeParentMax=0;resizeLast=0;collapsible=1;marginBottom=0;whiteSpace=wrap;html=1;fontFamily=Courier New;" parent="1" vertex="1">
          <mxGeometry x="129" y="1219" width="120" height="46" as="geometry" />
        </mxCell>
        <mxCell id="GCzGzrYWqf671Uo-7Ya1-73" value="" style="line;strokeWidth=1;fillColor=none;align=left;verticalAlign=middle;spacingTop=-1;spacingLeft=3;spacingRight=3;rotatable=0;labelPosition=right;points=[];portConstraint=eastwest;strokeColor=inherit;fontFamily=Courier New;" parent="GCzGzrYWqf671Uo-7Ya1-72" vertex="1">
          <mxGeometry y="38" width="120" height="8" as="geometry" />
        </mxCell>
        <mxCell id="GCzGzrYWqf671Uo-7Ya1-75" value="&lt;span style=&quot;font-weight: normal;&quot;&gt;«примитив»&lt;/span&gt;&lt;br&gt;String" style="swimlane;fontStyle=1;align=center;verticalAlign=top;childLayout=stackLayout;horizontal=1;startSize=38;horizontalStack=0;resizeParent=1;resizeParentMax=0;resizeLast=0;collapsible=1;marginBottom=0;whiteSpace=wrap;html=1;fontFamily=Courier New;" parent="1" vertex="1">
          <mxGeometry x="63" y="295" width="120" height="46" as="geometry" />
        </mxCell>
        <mxCell id="GCzGzrYWqf671Uo-7Ya1-76" value="" style="line;strokeWidth=1;fillColor=none;align=left;verticalAlign=middle;spacingTop=-1;spacingLeft=3;spacingRight=3;rotatable=0;labelPosition=right;points=[];portConstraint=eastwest;strokeColor=inherit;fontFamily=Courier New;" parent="GCzGzrYWqf671Uo-7Ya1-75" vertex="1">
          <mxGeometry y="38" width="120" height="8" as="geometry" />
        </mxCell>
        <mxCell id="FObeBjHRy4o4t9xD1hiK-1" style="edgeStyle=orthogonalEdgeStyle;rounded=0;orthogonalLoop=1;jettySize=auto;html=1;endArrow=diamondThin;endFill=1;endSize=15;startSize=12;startArrow=openThin;startFill=0;fontFamily=Courier New;" parent="1" source="GCzGzrYWqf671Uo-7Ya1-52" target="GCzGzrYWqf671Uo-7Ya1-40" edge="1">
          <mxGeometry relative="1" as="geometry">
            <mxPoint x="1545" y="1330" as="sourcePoint" />
            <mxPoint x="1326" y="1168" as="targetPoint" />
            <Array as="points">
              <mxPoint x="1867" y="1332" />
            </Array>
          </mxGeometry>
        </mxCell>
        <mxCell id="FObeBjHRy4o4t9xD1hiK-2" value="1" style="edgeLabel;html=1;align=center;verticalAlign=middle;resizable=0;points=[];fontFamily=Courier New;" parent="FObeBjHRy4o4t9xD1hiK-1" vertex="1" connectable="0">
          <mxGeometry x="0.8242" relative="1" as="geometry">
            <mxPoint x="-41" y="267" as="offset" />
          </mxGeometry>
        </mxCell>
        <mxCell id="FObeBjHRy4o4t9xD1hiK-3" value="- is_running_callback" style="edgeLabel;html=1;align=center;verticalAlign=middle;resizable=0;points=[];fontFamily=Courier New;" parent="FObeBjHRy4o4t9xD1hiK-1" vertex="1" connectable="0">
          <mxGeometry x="0.7143" y="-1" relative="1" as="geometry">
            <mxPoint x="-79" y="-25" as="offset" />
          </mxGeometry>
        </mxCell>
        <mxCell id="FObeBjHRy4o4t9xD1hiK-4" value="&lt;div style=&quot;border-color: var(--border-color);&quot;&gt;&lt;span style=&quot;font-weight: normal;&quot;&gt;«интерфейс»&lt;br style=&quot;border-color: var(--border-color);&quot;&gt;&lt;/span&gt;&lt;/div&gt;УстановщикМодуля" style="swimlane;fontStyle=1;align=center;verticalAlign=top;childLayout=stackLayout;horizontal=1;startSize=41;horizontalStack=0;resizeParent=1;resizeParentMax=0;resizeLast=0;collapsible=1;marginBottom=0;whiteSpace=wrap;html=1;fontFamily=Courier New;" parent="1" vertex="1">
          <mxGeometry x="1966" y="1117" width="276" height="88" as="geometry" />
        </mxCell>
        <mxCell id="FObeBjHRy4o4t9xD1hiK-5" value="" style="line;strokeWidth=1;fillColor=none;align=left;verticalAlign=middle;spacingTop=-1;spacingLeft=3;spacingRight=3;rotatable=0;labelPosition=right;points=[];portConstraint=eastwest;strokeColor=inherit;fontFamily=Courier New;" parent="FObeBjHRy4o4t9xD1hiK-4" vertex="1">
          <mxGeometry y="41" width="276" height="8" as="geometry" />
        </mxCell>
        <mxCell id="FObeBjHRy4o4t9xD1hiK-6" value="+ storeModule( module : Модуль&lt;br&gt;&amp;nbsp; &amp;nbsp; &amp;nbsp; &amp;nbsp; &amp;nbsp; &amp;nbsp; &amp;nbsp;, error&amp;nbsp; : String )" style="text;strokeColor=none;fillColor=none;align=left;verticalAlign=top;spacingLeft=4;spacingRight=4;overflow=hidden;rotatable=0;points=[[0,0.5],[1,0.5]];portConstraint=eastwest;whiteSpace=wrap;html=1;fontFamily=Courier New;" parent="FObeBjHRy4o4t9xD1hiK-4" vertex="1">
          <mxGeometry y="49" width="276" height="39" as="geometry" />
        </mxCell>
        <mxCell id="FObeBjHRy4o4t9xD1hiK-7" value="" style="endArrow=openThin;html=1;rounded=0;endFill=0;dashed=1;endSize=12;edgeStyle=orthogonalEdgeStyle;" parent="1" source="FObeBjHRy4o4t9xD1hiK-4" target="GCzGzrYWqf671Uo-7Ya1-69" edge="1">
          <mxGeometry width="50" height="50" relative="1" as="geometry">
            <mxPoint x="1358" y="1424" as="sourcePoint" />
            <mxPoint x="1961" y="1424" as="targetPoint" />
            <Array as="points">
              <mxPoint x="2026" y="1276" />
              <mxPoint x="2026" y="1276" />
            </Array>
          </mxGeometry>
        </mxCell>
        <mxCell id="FObeBjHRy4o4t9xD1hiK-8" style="edgeStyle=orthogonalEdgeStyle;rounded=0;orthogonalLoop=1;jettySize=auto;html=1;endArrow=diamondThin;endFill=1;endSize=15;startSize=12;startArrow=openThin;startFill=0;fontFamily=Courier New;" parent="1" source="FObeBjHRy4o4t9xD1hiK-4" target="GCzGzrYWqf671Uo-7Ya1-40" edge="1">
          <mxGeometry relative="1" as="geometry">
            <mxPoint x="1817" y="1342" as="sourcePoint" />
            <mxPoint x="1877" y="1031" as="targetPoint" />
            <Array as="points">
              <mxPoint x="2104" y="991" />
            </Array>
          </mxGeometry>
        </mxCell>
        <mxCell id="FObeBjHRy4o4t9xD1hiK-9" value="1" style="edgeLabel;html=1;align=center;verticalAlign=middle;resizable=0;points=[];fontFamily=Courier New;" parent="FObeBjHRy4o4t9xD1hiK-8" vertex="1" connectable="0">
          <mxGeometry x="0.8242" relative="1" as="geometry">
            <mxPoint x="190" y="101" as="offset" />
          </mxGeometry>
        </mxCell>
        <mxCell id="FObeBjHRy4o4t9xD1hiK-10" value="- store_module_callback" style="edgeLabel;html=1;align=center;verticalAlign=middle;resizable=0;points=[];fontFamily=Courier New;" parent="FObeBjHRy4o4t9xD1hiK-8" vertex="1" connectable="0">
          <mxGeometry x="0.7143" y="-1" relative="1" as="geometry">
            <mxPoint x="47" y="-12" as="offset" />
          </mxGeometry>
        </mxCell>
        <mxCell id="FObeBjHRy4o4t9xD1hiK-11" value="Модуль" style="swimlane;fontStyle=1;align=center;verticalAlign=top;childLayout=stackLayout;horizontal=1;startSize=26;horizontalStack=0;resizeParent=1;resizeParentMax=0;resizeLast=0;collapsible=1;marginBottom=0;whiteSpace=wrap;html=1;fontFamily=Courier New;" parent="1" vertex="1">
          <mxGeometry x="2154" y="1391" width="160" height="34" as="geometry" />
        </mxCell>
        <mxCell id="FObeBjHRy4o4t9xD1hiK-12" value="" style="line;strokeWidth=1;fillColor=none;align=left;verticalAlign=middle;spacingTop=-1;spacingLeft=3;spacingRight=3;rotatable=0;labelPosition=right;points=[];portConstraint=eastwest;strokeColor=inherit;fontFamily=Courier New;" parent="FObeBjHRy4o4t9xD1hiK-11" vertex="1">
          <mxGeometry y="26" width="160" height="8" as="geometry" />
        </mxCell>
        <mxCell id="FObeBjHRy4o4t9xD1hiK-13" value="" style="endArrow=openThin;html=1;rounded=0;endFill=0;dashed=1;endSize=12;edgeStyle=orthogonalEdgeStyle;" parent="1" source="FObeBjHRy4o4t9xD1hiK-4" target="FObeBjHRy4o4t9xD1hiK-11" edge="1">
          <mxGeometry width="50" height="50" relative="1" as="geometry">
            <mxPoint x="2036" y="1215" as="sourcePoint" />
            <mxPoint x="2036" y="1401" as="targetPoint" />
            <Array as="points">
              <mxPoint x="2209" y="1280" />
              <mxPoint x="2209" y="1280" />
            </Array>
          </mxGeometry>
        </mxCell>
      </root>
    </mxGraphModel>
  </diagram>
  <diagram id="OOwQqek5bFAM6q7G1OV6" name="Страница 3">
    <mxGraphModel dx="2157" dy="2243" grid="1" gridSize="10" guides="1" tooltips="1" connect="1" arrows="1" fold="1" page="1" pageScale="1" pageWidth="1169" pageHeight="1654" math="0" shadow="0">
      <root>
        <mxCell id="0" />
        <mxCell id="1" parent="0" />
        <mxCell id="ijpxWPGMA-n7ipPz_pMu-1" value="ОбёрткаИнтерпретатора" style="swimlane;fontStyle=1;align=center;verticalAlign=top;childLayout=stackLayout;horizontal=1;startSize=26;horizontalStack=0;resizeParent=1;resizeParentMax=0;resizeLast=0;collapsible=1;marginBottom=0;whiteSpace=wrap;html=1;fontFamily=Courier New;" parent="1" vertex="1">
          <mxGeometry x="-12" y="-323" width="160" height="86" as="geometry" />
        </mxCell>
        <mxCell id="ijpxWPGMA-n7ipPz_pMu-2" value="+ field: type" style="text;strokeColor=none;fillColor=none;align=left;verticalAlign=top;spacingLeft=4;spacingRight=4;overflow=hidden;rotatable=0;points=[[0,0.5],[1,0.5]];portConstraint=eastwest;whiteSpace=wrap;html=1;fontFamily=Courier New;" parent="ijpxWPGMA-n7ipPz_pMu-1" vertex="1">
          <mxGeometry y="26" width="160" height="26" as="geometry" />
        </mxCell>
        <mxCell id="ijpxWPGMA-n7ipPz_pMu-3" value="" style="line;strokeWidth=1;fillColor=none;align=left;verticalAlign=middle;spacingTop=-1;spacingLeft=3;spacingRight=3;rotatable=0;labelPosition=right;points=[];portConstraint=eastwest;strokeColor=inherit;fontFamily=Courier New;" parent="ijpxWPGMA-n7ipPz_pMu-1" vertex="1">
          <mxGeometry y="52" width="160" height="8" as="geometry" />
        </mxCell>
        <mxCell id="ijpxWPGMA-n7ipPz_pMu-4" value="+ method(type): type" style="text;strokeColor=none;fillColor=none;align=left;verticalAlign=top;spacingLeft=4;spacingRight=4;overflow=hidden;rotatable=0;points=[[0,0.5],[1,0.5]];portConstraint=eastwest;whiteSpace=wrap;html=1;fontFamily=Courier New;" parent="ijpxWPGMA-n7ipPz_pMu-1" vertex="1">
          <mxGeometry y="60" width="160" height="26" as="geometry" />
        </mxCell>
        <mxCell id="ijpxWPGMA-n7ipPz_pMu-5" value="&lt;div&gt;&lt;span style=&quot;font-weight: normal;&quot;&gt;«интерфейс»&lt;br&gt;&lt;/span&gt;&lt;/div&gt;ОбработчикСообщений" style="swimlane;fontStyle=1;align=center;verticalAlign=top;childLayout=stackLayout;horizontal=1;startSize=40;horizontalStack=0;resizeParent=1;resizeParentMax=0;resizeLast=0;collapsible=1;marginBottom=0;whiteSpace=wrap;html=1;fontFamily=Courier New;" parent="1" vertex="1">
          <mxGeometry x="211" y="-410" width="200" height="100" as="geometry" />
        </mxCell>
        <mxCell id="ijpxWPGMA-n7ipPz_pMu-6" value="+ field: type" style="text;strokeColor=none;fillColor=none;align=left;verticalAlign=top;spacingLeft=4;spacingRight=4;overflow=hidden;rotatable=0;points=[[0,0.5],[1,0.5]];portConstraint=eastwest;whiteSpace=wrap;html=1;fontFamily=Courier New;" parent="ijpxWPGMA-n7ipPz_pMu-5" vertex="1">
          <mxGeometry y="40" width="200" height="26" as="geometry" />
        </mxCell>
        <mxCell id="ijpxWPGMA-n7ipPz_pMu-7" value="" style="line;strokeWidth=1;fillColor=none;align=left;verticalAlign=middle;spacingTop=-1;spacingLeft=3;spacingRight=3;rotatable=0;labelPosition=right;points=[];portConstraint=eastwest;strokeColor=inherit;fontFamily=Courier New;" parent="ijpxWPGMA-n7ipPz_pMu-5" vertex="1">
          <mxGeometry y="66" width="200" height="8" as="geometry" />
        </mxCell>
        <mxCell id="ijpxWPGMA-n7ipPz_pMu-8" value="+ method(type): type" style="text;strokeColor=none;fillColor=none;align=left;verticalAlign=top;spacingLeft=4;spacingRight=4;overflow=hidden;rotatable=0;points=[[0,0.5],[1,0.5]];portConstraint=eastwest;whiteSpace=wrap;html=1;fontFamily=Courier New;" parent="ijpxWPGMA-n7ipPz_pMu-5" vertex="1">
          <mxGeometry y="74" width="200" height="26" as="geometry" />
        </mxCell>
      </root>
    </mxGraphModel>
  </diagram>
</mxfile>
